#N canvas 85 111 903 538 10;
#X obj 58 31 cnv 15 15 15 empty empty vasp.size+ 0 10 1 14 -262144
-1 0;
#N canvas 0 0 408 284 init 0;
#X obj 33 19 loadbang;
#X msg 33 73 \; \$1 xticks 0 2 5 \; \$1 xlabel 1.1 0 10 20 30 40 50
\; \$1 yticks 0 0.25 2;
#X msg 33 45 symbol bufdsize;
#X connect 0 0 2 0;
#X connect 2 0 1 0;
#X restore 714 408 pd init;
#X text 119 392 abbreviation;
#X text 58 83 argument/right inlet: value in samples;
#X obj 62 504 VASP;
#X text 104 504 - vasp overview;
#N canvas 0 0 450 300 graph1 0;
#X array bufdsize 76 float 0;
#X coords 0 1 75 -1 300 100 1;
#X restore 453 153 graph;
#X floatatom 141 201 5 0 0;
#X text 62 433 related objects:;
#X obj 343 460 vasp.frames;
#X obj 183 460 vasp.size?;
#X obj 259 460 vasp.size*;
#X obj 259 437 vasp.size/;
#X msg 62 152 vasp bufdsize;
#X text 56 67 add an amount to the size of a buffer/array;
#X obj 62 225 vasp.size+ 10;
#X obj 62 271 vasp.size?;
#X floatatom 62 304 5 0 0;
#X obj 63 392 vasp.s+;
#X obj 183 436 vasp.size;
#X connect 7 0 15 1;
#X connect 13 0 15 0;
#X connect 15 0 16 0;
#X connect 16 0 17 0;
