#N canvas 24 75 773 474 10;
#X obj 75 32 cnv 15 15 15 empty empty vasp.xrot 0 10 1 14 -262144 -1
0;
#X obj 311 352 dac~;
#X obj 311 309 bng 15 250 50 0 empty empty empty 0 -6 0 8 -262144 -1
-1;
#X text 333 306 play;
#X text 445 307 clear;
#X obj 69 121 filelist \$0;
#N canvas 0 0 413 295 clear_buffer 0;
#X obj 49 73 vasp.= 0;
#X obj 49 49 inlet;
#X obj 49 97 vasp.u;
#X obj 49 118 bng 15 250 50 0 \$0-draw_display empty empty 0 -6 1152
8 -262144 -1 -1;
#X connect 0 0 2 0;
#X connect 1 0 0 0;
#X connect 2 0 3 0;
#X restore 445 352 pd clear_buffer;
#X text 72 73 optional argument/right inlet: value;
#N canvas 92 108 389 330 inside 0;
#X obj 66 154 soundfiler;
#X obj 84 238 s \$0-sample-length;
#X obj 66 208 s \$0-draw_display;
#X msg 214 206 resize \$1;
#X obj 66 53 loadbang;
#X obj 66 178 t b f f;
#X obj 66 101 filelisthandler \$0;
#X msg 66 129 read -resize \$1 bufxrot;
#X obj 214 228 s bufxrot;
#X msg 66 79 2;
#X connect 0 0 5 0;
#X connect 3 0 8 0;
#X connect 4 0 9 0;
#X connect 5 0 2 0;
#X connect 5 1 1 0;
#X connect 5 2 3 0;
#X connect 6 0 7 0;
#X connect 7 0 0 0;
#X connect 9 0 6 0;
#X restore 599 352 pd inside;
#X text 71 60 rotate buffer content;
#X obj 311 329 tabplay~ bufxrot;
#X msg 445 329 vasp bufxrot;
#X obj 328 126 wavedisplay-simple bufxrot \$0;
#X obj 68 333 vasp.update;
#X obj 68 356 bng 15 250 50 0 \$0-draw_display empty empty 0 -6 1152
8 -262144 -1 -1;
#X floatatom 153 279 8 0 0;
#X msg 68 231 vasp bufxrot;
#X obj 68 305 vasp.xrot 10000;
#X obj 56 436 VASP;
#X text 98 436 - vasp overview;
#X connect 2 0 10 0;
#X connect 10 0 1 0;
#X connect 10 0 1 1;
#X connect 11 0 6 0;
#X connect 13 0 14 0;
#X connect 15 0 17 1;
#X connect 16 0 17 0;
#X connect 17 0 13 0;
