#N canvas 32 38 952 599 10;
#X text 55 80 argument/right inlet: value;
#X obj 58 27 cnv 15 15 15 empty empty vasp.offset= 0 10 1 14 -262144
-1 0;
#X text 74 571 abbreviation;
#X obj 67 486 prepend set;
#X obj 385 568 VASP;
#X text 427 568 - vasp overview;
#N canvas 0 0 450 300 graph1 0;
#X array bufsoffs1 88200 float 0;
#X coords 0 1 88199 -1 300 100 1;
#X restore 551 88 graph;
#N canvas 466 356 383 247 init 0;
#X obj 33 19 loadbang;
#X msg 33 71 \; \$1 xticks 0 4410 10 \; \$1 xlabel 1.1 0 22050 44100
66150 88200 \; \$1 yticks 0 0.25 2 \; \$1 ylabel 94000 -1 -0.5 0 0.5
1;
#X msg 33 45 symbol bufsoffs1;
#X msg 151 45 symbol bufsoffs2;
#X connect 0 0 2 0;
#X connect 0 0 3 0;
#X connect 2 0 1 0;
#X connect 3 0 1 0;
#X restore 802 556 pd init;
#N canvas 0 0 450 300 graph1 0;
#X array bufsoffs2 88200 float 0;
#X coords 0 1 88199 -1 300 100 1;
#X restore 551 207 graph;
#X text 55 63 set the offset to a point \, where a special value appears
;
#X obj 63 183 vasp.u;
#X obj 63 157 vasp.window lin;
#X msg 63 130 vasp bufsoffs1;
#X msg 64 223 vasp bufsoffs1;
#X obj 67 447 vasp.offset= 0;
#X msg 67 419 vasp bufsoffs1;
#X obj 67 394 t b f;
#X floatatom 146 470 5 0 0;
#X msg 67 513 vasp 52920 bufsoffs1 35280 0;
#X obj 64 250 vasp.offset= 0.4;
#X text 189 127 1 generate a ramp;
#X obj 155 292 vasp.noise;
#X obj 155 314 vasp.u;
#X text 54 98 right outlet: offset position in samples;
#X msg 155 272 vasp bufsoffs2 \$1;
#X obj 67 368 nbx 5 14 0 1 0 0 empty empty empty 0 -6 0 10 -24198 -1
-1 0 256;
#X text 163 382 test values 0 - 1;
#N canvas 0 0 261 214 clear_buffer 0;
#X obj 49 73 vasp.= 0;
#X obj 49 49 inlet;
#X obj 49 97 vasp.u;
#X obj 49 118 bng 15 250 50 0 \$0-draw_display empty empty 0 -6 1152
8 -262144 -1 -1;
#X connect 0 0 2 0;
#X connect 1 0 0 0;
#X connect 2 0 3 0;
#X restore 686 557 pd clear_buffer;
#X msg 686 533 vasp bufsoffs2;
#X text 185 221 2 generate noise \, and start at the point \,;
#X text 205 236 where the ramp is at 0.4;
#X obj 165 568 vasp.o=;
#X text 685 511 clear second buffer;
#X connect 3 0 18 0;
#X connect 11 0 10 0;
#X connect 12 0 11 0;
#X connect 13 0 19 0;
#X connect 14 0 3 0;
#X connect 14 1 17 0;
#X connect 15 0 14 0;
#X connect 16 0 15 0;
#X connect 16 1 14 1;
#X connect 19 1 24 0;
#X connect 21 0 22 0;
#X connect 24 0 21 0;
#X connect 25 0 16 0;
#X connect 28 0 27 0;
