#N canvas 28 91 934 539 10;
#X obj 62 41 cnv 15 15 15 empty empty vasp.!= 0 10 1 14 -262144 -1
0;
#N canvas 0 0 450 300 graph1 0;
#X array bufneq1 88200 float 0;
#X coords 0 1 88199 -1 300 100 1;
#X restore 512 119 graph;
#N canvas 0 0 404 280 init 0;
#X obj 33 19 loadbang;
#X msg 33 73 \; \$1 xticks 0 4410 10 \; \$1 xlabel 1.1 0 22050 44100
66150 88200 \; \$1 yticks 0 0.25 2 \; \$1 ylabel 94000 -1 -0.5 0 0.5
1;
#X msg 33 45 symbol bufneq1 \, symbol bufneq2;
#X connect 0 0 2 0;
#X connect 2 0 1 0;
#X restore 766 421 pd init;
#N canvas 0 0 450 300 graph1 0;
#X array bufneq2 88200 float 0;
#X coords 0 1 88199 -1 300 100 1;
#X restore 512 248 graph;
#X text 59 98 argument/right inlet: value;
#X obj 61 307 vasp.update;
#N canvas 0 0 413 295 clear_buffers 0;
#X obj 49 73 vasp.= 0;
#X obj 49 49 inlet;
#X obj 49 97 vasp.u;
#X obj 49 118 bng 15 250 50 0 \$0-draw_display empty empty 0 -6 1152
8 -262144 -1 -1;
#X connect 0 0 2 0;
#X connect 1 0 0 0;
#X connect 2 0 3 0;
#X restore 564 426 pd clear_buffers;
#X obj 61 177 vasp.m 2;
#X obj 61 204 vasp.lower;
#X obj 248 207 vasp.upper;
#X text 173 149 generate a function;
#X obj 38 240 vasp.lower;
#X obj 144 240 vasp.upper;
#X obj 144 267 vasp.= 0.3;
#X obj 230 240 vasp.lower;
#X obj 309 240 vasp.upper;
#X obj 230 267 vasp.= -1;
#X text 417 248 1/true;
#X text 416 288 0/false;
#X text 60 80 not equal;
#X msg 564 399 vasp bufneq1 bufneq2;
#X msg 61 150 vasp bufneq1;
#X text 162 409 test if a part of the function is not equal to -1;
#X obj 58 434 vasp.update;
#X obj 58 407 vasp.!= -1;
#X obj 58 376 vasp.= bufneq1;
#X msg 58 349 vasp bufneq2;
#X obj 49 495 VASP-HELP;
#X text 91 495 - vasp overview;
#X obj 38 267 vasp.window lin;
#X obj 309 267 vasp.!window lin;
#X connect 7 0 8 0;
#X connect 7 1 9 0;
#X connect 8 0 11 0;
#X connect 8 0 12 0;
#X connect 9 0 14 0;
#X connect 9 0 15 0;
#X connect 11 0 29 0;
#X connect 12 0 13 0;
#X connect 13 0 5 0;
#X connect 14 0 16 0;
#X connect 15 0 30 0;
#X connect 16 0 5 0;
#X connect 20 0 6 0;
#X connect 21 0 7 0;
#X connect 24 0 23 0;
#X connect 25 0 24 0;
#X connect 26 0 25 0;
#X connect 29 0 5 0;
#X connect 30 0 5 0;
