#N canvas 188 145 701 394 10;
#X text 55 83 argument/right inlet: value;
#X text 55 69 set the offset of a vasp (into a buffer);
#X text 55 98 ---! vasp.offs sets all vectors to the same offset !---
;
#X obj 41 11 cnv 15 15 15 empty empty vasp.offset 0 10 1 14 -262144
-1 0;
#X obj 344 303 table bufoffs1 88200;
#X obj 344 323 buffer~ bufoffs2 88200;
#X obj 58 196 cnv 15 92 17 empty empty empty 20 12 0 14 -258699 -66577
0;
#X floatatom 143 175 0 0 0;
#X msg 58 254;
#X obj 58 221 prepend set;
#X msg 58 148 vasp bufoffs1;
#X obj 58 196 vasp.offset 300;
#X obj 245 196 cnv 15 92 17 empty empty empty 20 12 0 14 -258699 -66577
0;
#X floatatom 330 175 0 0 0;
#X msg 245 254;
#X obj 245 221 prepend set;
#X msg 245 148 vasp bufoffs1 220 bufoffs2 100;
#X obj 245 196 vasp.offset 300;
#X text 57 323 abbreviation;
#X obj 153 320 vasp.o;
#X obj 153 320 cnv 15 38 17 empty empty empty 20 12 0 14 -258699 -66577
0;
#X obj 153 320 vasp.o;
#X connect 7 0 11 1;
#X connect 9 0 8 0;
#X connect 10 0 11 0;
#X connect 11 0 9 0;
#X connect 13 0 17 1;
#X connect 15 0 14 0;
#X connect 16 0 17 0;
#X connect 17 0 15 0;
