#N canvas 258 153 566 316 10;
#X text 56 204 differences in lengths are adjusted to smaller vector
of each pair;
#X text 59 142 c \, d ... right operand;
#X text 59 127 a \, b ... left operand;
#X text 59 83 e+if=(c+id)-(a+ib);
#X text 59 112 e \, f ... target buffers;
#X text 59 170 vasp.c- needs 2 vectors per operand which are treated
as pairs;
#X text 59 67 complex inverse substraction;
#X obj 55 34 cnv 15 15 15 empty empty vasp.c!- 0 10 1 14 -262144 -1
0;
#X obj 286 90 cnv 15 50 17 empty empty empty 20 12 0 14 -258699 -66577
0;
#X obj 286 90 vasp.c!-;
