#N canvas 24 75 770 449 10;
#X obj 75 32 cnv 15 15 15 empty empty vasp.mirr 0 10 1 14 -262144 -1
0;
#X obj 314 317 dac~;
#X obj 314 273 bng 15 250 50 0 empty empty empty 0 -6 0 8 -262144 -1
-1;
#X text 336 272 play;
#X text 448 272 clear;
#X obj 69 121 filelist \$0;
#N canvas 0 0 413 295 clear_buffer 0;
#X obj 49 73 vasp.= 0;
#X obj 49 49 inlet;
#X obj 49 97 vasp.u;
#X obj 49 118 bng 15 250 50 0 \$0-draw_display empty empty 0 -6 1152
8 -262144 -1 -1;
#X connect 0 0 2 0;
#X connect 1 0 0 0;
#X connect 2 0 3 0;
#X restore 448 316 pd clear_buffer;
#N canvas 92 108 391 332 inside 0;
#X obj 66 154 soundfiler;
#X obj 84 238 s \$0-sample-length;
#X obj 66 208 s \$0-draw_display;
#X msg 214 206 resize \$1;
#X obj 66 53 loadbang;
#X obj 66 178 t b f f;
#X obj 66 101 filelisthandler \$0;
#X msg 66 79 2;
#X msg 66 129 read -resize \$1 bufmirr;
#X obj 214 228 s bufmirr;
#X connect 0 0 5 0;
#X connect 3 0 9 0;
#X connect 4 0 7 0;
#X connect 5 0 2 0;
#X connect 5 1 1 0;
#X connect 5 2 3 0;
#X connect 6 0 8 0;
#X connect 7 0 6 0;
#X connect 8 0 0 0;
#X restore 602 316 pd inside;
#X obj 348 131 wavedisplay-simple bufmirr \$0;
#X obj 314 294 tabplay~ bufmirr;
#X msg 448 293 vasp bufmirr;
#X text 75 52 mirrors a vasp (reverse);
#X obj 71 304 vasp.update;
#X obj 71 327 bng 15 250 50 0 \$0-draw_display empty empty 0 -6 1152
8 -262144 -1 -1;
#X msg 71 242 vasp bufmirr;
#X obj 71 281 vasp.mirr;
#X obj 57 418 VASP;
#X text 99 418 - vasp overview;
#X connect 2 0 9 0;
#X connect 9 0 1 0;
#X connect 9 0 1 1;
#X connect 10 0 6 0;
#X connect 12 0 13 0;
#X connect 14 0 15 0;
#X connect 15 0 12 0;
