#N canvas 85 111 901 536 10;
#X obj 58 31 cnv 15 15 15 empty empty vasp.size 0 10 1 14 -262144 -1
0;
#N canvas 0 0 406 282 init 0;
#X obj 33 19 loadbang;
#X msg 33 45 symbol bufsize;
#X msg 33 73 \; \$1 xticks 0 2 5 \; \$1 xlabel 1.1 0 10 20 30 40 50
\; \$1 yticks 0 0.25 2;
#X connect 0 0 1 0;
#X connect 1 0 2 0;
#X restore 714 408 pd init;
#X text 119 392 abbreviation;
#X text 58 83 argument/right inlet: value in samples;
#X obj 62 481 VASP;
#X text 104 481 - vasp overview;
#X obj 62 335 vasp.update;
#X obj 90 258 prepend set;
#X msg 62 152 vasp bufsize;
#X obj 62 225 vasp.size 100;
#N canvas 0 0 450 300 graph1 0;
#X array bufsize 100 float 0;
#X coords 0 1 99 -1 300 100 1;
#X restore 453 153 graph;
#X text 57 69 change the size of a buffer/array;
#X obj 62 303 vasp.osc 16;
#X floatatom 135 200 5 0 0;
#X obj 63 392 vasp.s;
#X obj 175 435 vasp.frames;
#X obj 256 435 vasp.size?;
#X text 62 433 related objects:;
#X msg 90 280;
#X connect 7 0 18 0;
#X connect 8 0 9 0;
#X connect 9 0 7 0;
#X connect 9 0 12 0;
#X connect 12 0 6 0;
#X connect 13 0 9 1;
