#N canvas 97 138 901 508 10;
#X obj 62 303 vasp.osc 22050;
#X obj 58 31 cnv 15 15 15 empty empty vasp.frames+ 0 10 1 14 -262144
-1 0;
#N canvas 0 0 450 300 graph1 0;
#X array bufdfram1 88200 float 0;
#X coords 0 1 88199 -1 300 100 1;
#X restore 530 149 graph;
#N canvas 0 0 402 278 init 0;
#X obj 33 19 loadbang;
#X msg 33 73 \; \$1 xticks 0 4410 10 \; \$1 xlabel 1.1 0 22050 44100
66150 88200 \; \$1 yticks 0 0.25 2 \; \$1 ylabel 94000 -1 -0.5 0 0.5
1;
#X msg 33 45 symbol bufdfram1;
#X msg 140 45 symbol bufdfram2;
#X connect 0 0 2 0;
#X connect 0 0 3 0;
#X connect 2 0 1 0;
#X connect 3 0 1 0;
#X restore 714 408 pd init;
#X obj 62 335 vasp.update;
#X text 119 397 abbreviation;
#N canvas 0 0 450 300 graph1 0;
#X array bufdfram2 88200 float 0;
#X coords 0 1 88199 -1 300 100 1;
#X restore 530 268 graph;
#X text 56 98 !!!all vectors of a vasp have the same framesize/length!!!
;
#X obj 77 252 prepend set;
#X obj 233 320 vasp.osc 22050;
#X obj 233 352 vasp.update;
#X obj 62 220 vasp.frames+ 30000;
#X obj 233 275 vasp.frames+ 22050;
#X obj 63 396 vasp.f+;
#X msg 62 153 vasp 20000 bufdfram1;
#X msg 77 274 vasp 50000 bufdfram1 0 0;
#X obj 63 452 VASP-HELP;
#X text 57 69 adds a value to the frames of a vasp;
#X text 58 83 argument/right inlet: value in frames;
#X obj 233 207 t b f;
#X obj 233 159 nbx 5 14 -1e+037 1e+037 0 0 empty empty empty 0 -6 0
10 -24198 -1 -1 187 256;
#X obj 233 253 vasp.= 0;
#X obj 233 178 * 100;
#X msg 233 231 vasp 5000 bufdfram1 bufdfram2 44100;
#X floatatom 268 181 12 0 0;
#X connect 0 0 4 0;
#X connect 8 0 15 0;
#X connect 9 0 10 0;
#X connect 11 0 8 0;
#X connect 11 0 0 0;
#X connect 12 0 9 0;
#X connect 14 0 11 0;
#X connect 19 0 23 0;
#X connect 19 1 12 1;
#X connect 20 0 22 0;
#X connect 21 0 12 0;
#X connect 22 0 19 0;
#X connect 22 0 24 0;
#X connect 23 0 21 0;
