#N canvas 21 60 879 574 10;
#X obj 61 33 cnv 15 15 15 empty empty vasp.imm 0 10 1 14 -262144 -1
0;
#X obj 56 385 vasp.= 0;
#X obj 112 342 bng 15 250 50 0 empty empty empty 0 -6 0 8 -262144 -1
-1;
#X obj 56 406 vasp.update;
#X obj 56 426 bng 15 250 50 0 \$0-draw_display empty empty 0 -6 1152
8 -262144 -1 -1;
#X msg 56 315 vasp bufset;
#X text 134 314 set all samples to zero;
#X text 136 339 set selected samples to zero;
#N canvas 0 0 261 214 clear_buffer 0;
#X obj 49 73 vasp.= 0;
#X obj 49 49 inlet;
#X obj 49 97 vasp.u;
#X obj 49 118 bng 15 250 50 0 \$0-draw_display empty empty 0 -6 1152
8 -262144 -1 -1;
#X connect 0 0 2 0;
#X connect 1 0 0 0;
#X connect 2 0 3 0;
#X restore 559 465 pd clear_buffer;
#X obj 51 533 VASP;
#X text 93 533 - vasp overview;
#X text 57 60 create an immediate vasp;
#X obj 159 476 vasp.!;
#X text 58 476 abbreviation:;
#X text 321 469 rechter inlet???;
#X msg 559 439 vasp bufimm;
#X text 463 390 auch mehrere immeditaes? wer greift auf welchen zu?
;
#N canvas 0 0 450 300 graph1 0;
#X array bufimm1 88200 float 0;
#X coords 0 1 88199 -1 300 100 1;
#X restore 463 57 graph;
#N canvas 0 0 392 268 init 0;
#X obj 33 19 loadbang;
#X msg 33 45 symbol buflist2;
#X msg 33 73 \; \$1 xticks 0 4410 10 \; \$1 xlabel 1.1 0 22050 44100
66150 88200 \; \$1 yticks 0 0.25 2 \; \$1 ylabel 94000 -1 -0.5 0 0.5
1;
#X connect 0 0 1 0;
#X connect 1 0 2 0;
#X restore 731 205 pd init;
#X obj 89 214 print;
#X msg 89 101 bang;
#X obj 145 204 vasp.frames 10;
#X obj 89 158 vasp.size 100;
#X obj 89 135 vasp.imm 1;
#X connect 1 0 3 0;
#X connect 2 0 1 0;
#X connect 3 0 4 0;
#X connect 5 0 1 0;
#X connect 15 0 8 0;
#X connect 20 0 23 0;
#X connect 21 0 19 0;
#X connect 23 0 22 0;
