#N canvas 253 148 447 443 10;
#X obj 51 19 cnv 15 15 15 empty empty vasp.n 0 10 1 14 -262144 -1 0
;
#X text 53 55 get a vector of a vasp;
#X text 53 79 argument/right inlet: index of vector;
#N canvas 4 20 842 535 more_examples 0;
#N canvas 440 389 476 291 inside 0;
#X obj 47 105 soundfiler;
#X obj 290 110 s \$0-sample-length;
#X obj 47 159 s \$0-draw_display;
#X msg 220 111 resize \$1;
#X obj 195 23 loadbang;
#X msg 47 129 bang;
#X msg 47 80 read \$1 bufn1;
#X obj 220 133 s bufn1;
#X obj 230 157 s bufn2;
#X obj 47 57 filelisthandler \$0;
#X msg 47 34 3;
#X msg 220 85 88200;
#X obj 195 49 t b b;
#X connect 0 0 5 0;
#X connect 3 0 7 0;
#X connect 3 0 8 0;
#X connect 4 0 12 0;
#X connect 5 0 2 0;
#X connect 6 0 0 0;
#X connect 9 0 6 0;
#X connect 10 0 9 0;
#X connect 11 0 3 0;
#X connect 11 0 1 0;
#X connect 12 0 10 0;
#X connect 12 1 11 0;
#X restore 707 433 pd inside;
#N canvas 0 0 413 295 clear_buffers 0;
#X obj 49 73 vasp.= 0;
#X obj 49 49 inlet;
#X obj 49 97 vasp.u;
#X obj 49 118 bng 15 250 50 0 \$0-draw_display empty empty 0 -6 1152
8 -262144 -1 -1;
#X connect 0 0 2 0;
#X connect 1 0 0 0;
#X connect 2 0 3 0;
#X restore 305 430 pd clear_buffers;
#X obj 57 290 bng 15 250 50 0 \$0-draw_display empty empty 0 -6 1152
8 -262144 -1 -1;
#X obj 53 37 cnv 15 15 15 empty empty more_examples 0 10 1 14 -262144
-1 0;
#X obj 459 122 wavedisplay-simple bufn1 \$0;
#X obj 461 276 wavedisplay-simple bufn2 \$0;
#X msg 305 404 vasp bufn1 bufn2;
#X text 604 102 real part of the soundfile;
#X text 573 258 imaginary part of the soundfile;
#X obj 57 241 vasp.cfft;
#X msg 57 216 vasp bufn1 bufn2;
#X obj 57 267 vasp.update;
#X obj 55 103 filelist \$0;
#X text 182 217 transform into real and imaginary part;
#X text 175 316 clear imaginary part of soundfile;
#X text 173 336 (vector with index 1);
#X obj 54 413 bng 15 250 50 0 \$0-draw_display empty empty 0 -6 1152
8 -262144 -1 -1;
#X msg 54 320 vasp bufn1 bufn2;
#X obj 54 390 vasp.update;
#X obj 54 345 vasp.n 1;
#X obj 54 368 vasp.= 0;
#X connect 6 0 1 0;
#X connect 9 0 11 0;
#X connect 10 0 9 0;
#X connect 11 0 2 0;
#X connect 17 0 19 0;
#X connect 18 0 16 0;
#X connect 19 0 20 0;
#X connect 20 0 18 0;
#X restore 58 291 pd more_examples;
#X text 196 290 <-- click!;
#X obj 58 166 vasp.n 0;
#X obj 58 193 prepend set;
#X obj 175 166 vasp.n 1;
#X obj 175 193 prepend set;
#X msg 58 121 vasp bufn1 bufn2;
#X msg 175 220;
#X msg 58 220;
#X obj 46 364 VASP;
#X text 88 364 - vasp overview;
#X connect 5 0 6 0;
#X connect 6 0 11 0;
#X connect 7 0 8 0;
#X connect 8 0 10 0;
#X connect 9 0 5 0;
#X connect 9 0 7 0;
