#N canvas 228 183 516 290 10;
#X text 58 169 differences in lengths are adjusted to smaller vector
of each pair;
#X text 58 124 c \, d is the target;
#X text 58 109 a \, b is the source;
#X text 58 84 (a+ib)=(c+id);
#X text 58 153 vasp.c= needs 2 vectors per operand which are treated
as pairs;
#X text 58 68 complex =;
#X obj 55 34 cnv 15 15 15 empty empty vasp.c= 0 10 1 14 -262144 -1
0;
#X obj 286 90 cnv 15 44 17 empty empty empty 20 12 0 14 -258699 -66577
0;
#X obj 286 90 vasp.c=;
