#N canvas 32 16 804 580 10;
#X obj 71 32 cnv 15 15 15 empty empty vasp.cnorm 0 10 1 14 -262144
-1 0;
#X obj 72 113 filelist \$0;
#N canvas 40 55 281 170 clear_buffers 0;
#X obj 54 79 vasp.update;
#X obj 54 56 vasp.= 0;
#X obj 54 26 inlet;
#X obj 54 108 bng 15 250 50 0 \$0-draw_display empty empty 0 -6 1152
8 -262144 -1 -1;
#X connect 0 0 3 0;
#X connect 1 0 0 0;
#X connect 2 0 1 0;
#X restore 479 495 pd clear_buffers;
#X obj 59 248 vasp.update;
#X obj 59 268 bng 15 250 50 0 \$0-draw_display empty empty 0 -6 1152
8 -262144 -1 -1;
#X obj 337 495 dac~;
#X obj 337 457 bng 15 250 50 0 empty empty empty 0 -6 0 8 -262144 -1
-1;
#X text 358 455 play;
#X obj 59 323 cnv 15 62 17 empty empty empty 20 12 0 14 -258699 -66577
0;
#N canvas 92 108 430 395 inside 0;
#X obj 66 169 soundfiler;
#X obj 84 253 s \$0-sample-length;
#X obj 66 223 s \$0-draw_display;
#X msg 214 221 resize \$1;
#X obj 66 47 loadbang;
#X obj 66 193 t b f f;
#X obj 66 113 filelisthandler \$0;
#X msg 66 91 4;
#X obj 214 243 s bufcnorm1;
#X obj 225 264 s bufcnorm2;
#X msg 66 145 read -resize \$1 bufcnorm1;
#X connect 0 0 5 0;
#X connect 3 0 8 0;
#X connect 3 0 9 0;
#X connect 4 0 7 0;
#X connect 5 0 2 0;
#X connect 5 1 1 0;
#X connect 5 2 3 0;
#X connect 6 0 10 0;
#X connect 7 0 6 0;
#X connect 10 0 0 0;
#X restore 668 495 pd inside;
#X obj 397 118 wavedisplay-simple bufcnorm1 \$0;
#X obj 398 275 wavedisplay-simple bufcnorm2 \$0;
#X msg 59 207 vasp bufcnorm1 bufcnorm2;
#X text 228 205 cfft;
#X obj 59 227 vasp.cfft;
#X obj 59 344 vasp.update;
#X obj 59 364 bng 15 250 50 0 \$0-draw_display empty empty 0 -6 1152
8 -262144 -1 -1;
#X msg 59 303 vasp bufcnorm1 bufcnorm2;
#X obj 59 323 vasp.cnorm;
#X obj 59 435 vasp.update;
#X obj 59 455 bng 15 250 50 0 \$0-draw_display empty empty 0 -6 1152
8 -262144 -1 -1;
#X msg 59 394 vasp bufcnorm1 bufcnorm2;
#X text 228 392 inverse cfft;
#X obj 59 414 vasp.c!fft;
#X obj 337 475 tabplay~ bufcnorm2;
#X obj 221 494 dac~;
#X obj 221 456 bng 15 250 50 0 empty empty empty 0 -6 0 8 -262144 -1
-1;
#X text 242 456 play;
#X obj 221 474 tabplay~ bufcnorm1;
#X text 668 97 real;
#X text 643 253 imaginary;
#X msg 479 475 vasp bufcnorm1 bufcnorm2;
#X text 70 73 needs two buffers (or multiple pairs);
#X text 69 59 sets radius of all complex sample pairs to unity (1)
;
#X connect 3 0 4 0;
#X connect 6 0 24 0;
#X connect 12 0 14 0;
#X connect 14 0 3 0;
#X connect 15 0 16 0;
#X connect 17 0 18 0;
#X connect 18 0 15 0;
#X connect 19 0 20 0;
#X connect 21 0 23 0;
#X connect 23 0 19 0;
#X connect 24 0 5 0;
#X connect 24 0 5 1;
#X connect 26 0 28 0;
#X connect 28 0 25 0;
#X connect 28 0 25 1;
#X connect 31 0 2 0;
