#N canvas 258 153 595 376 10;
#X text 49 142 c \, d ... right operand;
#X text 49 127 a \, b ... left operand;
#X text 49 112 e \, f ... target buffers;
#X text 48 207 differences in lengths are adjusted to smaller vector
of each pair;
#X text 49 81 e+if=(a+ib)+(c+id);
#X text 49 174 vasp.c+ needs 2 vectors per operand which are treated
as pairs;
#X text 49 65 complex addition;
#X obj 55 34 cnv 15 15 15 empty empty vasp.c+ 0 10 1 14 -262144 -1
0;
#X obj 238 88 cnv 15 44 17 empty empty empty 20 12 0 14 -258699 -66577
0;
#X obj 238 88 vasp.c+;
