#N canvas 114 118 895 502 10;
#X obj 62 303 vasp.osc 22050;
#X obj 58 31 cnv 15 15 15 empty empty vasp.frames+ 0 10 1 14 -262144
-1 0;
#N canvas 0 0 450 300 graph1 0;
#X array bufdfram1 88200 float 0;
#X coords 0 1 88199 -1 300 100 1;
#X restore 530 149 graph;
#N canvas 0 0 402 278 init 0;
#X obj 33 19 loadbang;
#X msg 33 73 \; \$1 xticks 0 4410 10 \; \$1 xlabel 1.1 0 22050 44100
66150 88200 \; \$1 yticks 0 0.25 2 \; \$1 ylabel 94000 -1 -0.5 0 0.5
1;
#X msg 33 45 symbol bufdfram1;
#X msg 140 45 symbol bufdfram2;
#X connect 0 0 2 0;
#X connect 0 0 3 0;
#X connect 2 0 1 0;
#X connect 3 0 1 0;
#X restore 714 408 pd init;
#X obj 62 220 cnv 15 110 17 empty empty empty 20 12 0 14 -258699 -66577
0;
#X obj 62 335 vasp.update;
#X obj 62 397 cnv 15 44 17 empty empty empty 20 12 0 14 -258699 -66577
0;
#X text 119 397 abbreviation;
#N canvas 0 0 450 300 graph1 0;
#X array bufdfram2 88200 float 0;
#X coords 0 1 88199 -1 300 100 1;
#X restore 530 268 graph;
#X text 58 83 argument/right inlet: value in samples;
#X text 56 98 !!!all vectors of a vasp have the same framesize/length!!!
;
#X obj 233 221 cnv 15 110 17 empty empty empty 20 12 0 14 -258699 -66577
0;
#X obj 90 258 prepend set;
#X obj 233 303 vasp.osc 22050;
#X obj 233 335 vasp.update;
#X obj 261 258 prepend set;
#X floatatom 336 199 5 0 0;
#X obj 62 220 vasp.frames+ 30000;
#X obj 233 221 vasp.frames+ 22050;
#X obj 62 397 vasp.f+;
#X msg 62 153 vasp 20000 bufdfram1;
#X msg 233 151 vasp 20000 bufdfram1 bufdfram2 44100;
#X msg 90 280;
#X msg 261 280;
#X text 57 69 adds a value to the frames to a vasp;
#X connect 0 0 5 0;
#X connect 12 0 22 0;
#X connect 13 0 14 0;
#X connect 15 0 23 0;
#X connect 16 0 18 1;
#X connect 17 0 12 0;
#X connect 17 0 0 0;
#X connect 18 0 13 0;
#X connect 18 0 15 0;
#X connect 20 0 17 0;
#X connect 21 0 18 0;
