#N canvas 91 83 888 572 10;
#N canvas 92 108 411 413 inside 0;
#X obj 66 154 soundfiler;
#X obj 84 238 s \$0-sample-length;
#X obj 66 208 s \$0-draw_display;
#X msg 214 206 resize \$1;
#X obj 214 159 loadbang;
#X obj 67 53 loadbang;
#X msg 214 180 88200;
#X obj 66 178 t b f f;
#X obj 67 101 filelisthandler \$0;
#X msg 67 79 4;
#X msg 67 133 read -resize \$1 bufradd1;
#X obj 214 228 s bufradd1;
#X obj 224 251 s bufradd2;
#X connect 0 0 7 0;
#X connect 3 0 11 0;
#X connect 3 0 12 0;
#X connect 4 0 6 0;
#X connect 5 0 9 0;
#X connect 6 0 3 0;
#X connect 6 0 1 0;
#X connect 7 0 2 0;
#X connect 7 1 1 0;
#X connect 7 2 3 0;
#X connect 8 0 10 0;
#X connect 9 0 8 0;
#X connect 10 0 0 0;
#X restore 772 512 pd inside;
#X obj 75 32 cnv 15 15 15 empty empty vasp.r+ 0 10 1 14 -262144 -1
0;
#X obj 65 379 cnv 15 74 17 empty empty empty 20 12 0 14 -258699 -66577
0;
#X obj 73 134 filelist \$0;
#X obj 65 512 vasp.update;
#X obj 65 535 bng 15 250 50 0 \$0-draw_display empty empty 0 -6 1152
8 -262144 -1 -1;
#X obj 65 489 vasp.c!fft;
#X obj 65 260 vasp.cfft;
#X obj 65 281 vasp.update;
#X obj 65 302 bng 15 250 50 0 \$0-draw_display empty empty 0 -6 1152
8 -262144 -1 -1;
#X obj 343 514 dac~;
#N canvas 0 0 413 295 clear_buffers 0;
#X obj 49 73 vasp.= 0;
#X obj 49 49 inlet;
#X obj 49 97 vasp.u;
#X obj 49 118 bng 15 250 50 0 \$0-draw_display empty empty 0 -6 1152
8 -262144 -1 -1;
#X connect 0 0 2 0;
#X connect 1 0 0 0;
#X connect 2 0 3 0;
#X restore 477 514 pd clear_buffers;
#X obj 343 471 bng 15 250 50 0 empty empty empty 0 -6 0 8 -262144 -1
-1;
#X text 365 468 play;
#X text 477 469 clear;
#X text 71 53 add avalue to a radius;
#X text 71 65 argument/right inlet: value (offset);
#X text 72 82 needs two vectors;
#X obj 522 272 wavedisplay-simple bufradd2 \$0;
#X obj 521 116 wavedisplay-simple bufradd1 \$0;
#X msg 65 239 vasp bufradd1 bufradd2;
#X obj 65 405 vasp.update;
#X obj 65 426 bng 15 250 50 0 \$0-draw_display empty empty 0 -6 1152
8 -262144 -1 -1;
#X msg 65 325 vasp bufradd1 bufradd2;
#X obj 65 379 vasp.r+ 0.05;
#X msg 65 465 vasp bufradd1 bufradd2;
#X obj 343 491 tabplay~ bufradd1;
#X msg 477 491 vasp bufradd1 bufradd2;
#X floatatom 132 352 5 0 0;
#X text 183 350 value;
#X connect 4 0 5 0;
#X connect 6 0 4 0;
#X connect 7 0 8 0;
#X connect 8 0 9 0;
#X connect 12 0 26 0;
#X connect 20 0 7 0;
#X connect 21 0 22 0;
#X connect 23 0 24 0;
#X connect 24 0 21 0;
#X connect 25 0 6 0;
#X connect 26 0 10 0;
#X connect 26 0 10 1;
#X connect 27 0 11 0;
#X connect 28 0 24 1;
