#N canvas 40 76 957 600 10;
#N canvas 40 55 247 122 clear_buffer 0;
#X obj 45 79 vasp.update;
#X obj 45 56 vasp.= 0;
#X obj 45 26 inlet;
#X connect 1 0 0 0;
#X connect 2 0 1 0;
#X restore 592 552 pd clear_buffer;
#X obj 51 19 cnv 15 15 15 empty empty vasp.fix 0 10 1 14 -262144 -1
0;
#X obj 52 493 VASP;
#X text 94 492 - vasp overview;
#X text 43 57 NAN (not a number) - values become 0;
#N canvas 0 0 450 300 graph1 0;
#X array buffix1 100 float 0;
#X coords 0 1 99 -1 300 100 1;
#X restore 539 58 graph;
#N canvas 0 0 390 266 init 0;
#X obj 33 19 loadbang;
#X msg 33 73 \; \$1 xticks 0 1 10 \; \$1 xlabel 1.1 0 20 40 60 80 100
\; \$1 yticks 0 0.25 2 \; \$1 ylabel 105 -1 -0.5 0 0.5 1;
#X msg 33 45 symbol buffix1 \, symbol buffix2 \, symbol buffix3;
#X connect 0 0 2 0;
#X connect 2 0 1 0;
#X restore 799 523 pd init;
#N canvas 0 0 450 300 graph1 0;
#X array buffix2 100 float 0;
#X coords 0 1 99 -1 300 100 1;
#X restore 539 207 graph;
#N canvas 0 0 450 300 graph1 0;
#X array buffix3 100 float 0;
#X coords 0 1 99 -1 300 100 1;
#X restore 539 353 graph;
#X msg 592 523 vasp buffix1 buffix2 buffix3;
#X obj 142 254 vasp.log;
#X obj 246 392 vasp.u;
#X obj 246 365 vasp.fix;
#X obj 142 393 vasp.u;
#X obj 142 332 vasp.exp;
#X text 152 362 no fix;
#X obj 57 231 vasp.u;
#X text 212 253 values < 0 become NANs;
#X text 57 259 array1;
#X text 803 324 fixed;
#X text 802 18 source;
#X text 814 179 NANs;
#X msg 57 121 vasp buffix1;
#X obj 57 202 vasp.-> buffix2;
#X obj 142 292 vasp.-> buffix3;
#X obj 246 334 vasp.exp;
#X text 142 421 NANs;
#X text 246 420 fixed;
#X text 157 121 generate sine wave;
#X obj 57 157 vasp.osc 21;
#X connect 9 0 0 0;
#X connect 10 0 24 0;
#X connect 12 0 11 0;
#X connect 14 0 13 0;
#X connect 22 0 29 0;
#X connect 23 0 16 0;
#X connect 23 1 10 0;
#X connect 24 0 14 0;
#X connect 24 1 25 0;
#X connect 25 0 12 0;
#X connect 29 0 23 0;
