#N canvas 262 131 446 354 10;
#X text 51 80 argument: number of outlets;
#X text 51 63 outputs a vasp multiple times;
#X obj 43 28 cnv 15 15 15 empty empty vasp.m 0 10 1 14 -262144 -1 0
;
#X obj 56 111 table bufm 88200;
#X obj 56 180 cnv 15 50 17 empty empty empty 20 12 0 14 -258699 -66577
0;
#X obj 223 232 prepend set;
#X obj 56 232 prepend set;
#X msg 56 156 vasp 22050 bufm 44100 0;
#X obj 56 180 vasp.m 2;
#X msg 56 257;
#X msg 223 257;
#X connect 5 0 10 0;
#X connect 6 0 9 0;
#X connect 7 0 8 0;
#X connect 8 0 6 0;
#X connect 8 1 5 0;
