#N canvas 28 51 890 603 10;
#N canvas 92 108 411 413 inside 0;
#X obj 66 154 soundfiler;
#X obj 84 238 s \$0-sample-length;
#X obj 66 208 s \$0-draw_display;
#X msg 214 206 resize \$1;
#X obj 67 53 loadbang;
#X obj 66 178 t b f f;
#X obj 67 101 filelisthandler \$0;
#X msg 67 133 read -resize \$1 bufcpowi1;
#X obj 214 228 s bufcpowi1;
#X obj 224 252 s bufcpowi2;
#X msg 67 79 1;
#X connect 0 0 5 0;
#X connect 3 0 8 0;
#X connect 3 0 9 0;
#X connect 4 0 10 0;
#X connect 5 0 2 0;
#X connect 5 1 1 0;
#X connect 5 2 3 0;
#X connect 6 0 7 0;
#X connect 7 0 0 0;
#X connect 10 0 6 0;
#X restore 685 477 pd inside;
#X obj 75 32 cnv 15 15 15 empty empty vasp.cpowi 0 10 1 14 -262144
-1 0;
#X obj 77 139 filelist \$0;
#X obj 59 482 vasp.update;
#X obj 59 502 bng 15 250 50 0 \$0-draw_display empty empty 0 -6 1152
8 -262144 -1 -1;
#X obj 59 442 vasp.c!fft;
#X obj 59 264 vasp.cfft;
#X obj 59 284 vasp.update;
#X obj 59 304 bng 15 250 50 0 \$0-draw_display empty empty 0 -6 1152
8 -262144 -1 -1;
#X obj 352 474 dac~;
#N canvas 0 0 413 295 clear_buffers 0;
#X obj 49 73 vasp.= 0;
#X obj 49 49 inlet;
#X obj 49 97 vasp.u;
#X obj 49 118 bng 15 250 50 0 \$0-draw_display empty empty 0 -6 1152
8 -262144 -1 -1;
#X connect 0 0 2 0;
#X connect 1 0 0 0;
#X connect 2 0 3 0;
#X restore 486 474 pd clear_buffers;
#X obj 352 431 bng 15 250 50 0 empty empty empty 0 -6 0 8 -262144 -1
-1;
#X text 374 428 play;
#X text 486 429 clear;
#X text 74 61 complex integer power function;
#X text 74 75 complex sample ^ n;
#X text 74 101 argument: exponent;
#X msg 59 244 vasp bufcpowi1 bufcpowi2;
#X obj 431 109 wavedisplay-simple bufcpowi1 \$0;
#X obj 432 252 wavedisplay-simple bufcpowi2 \$0;
#X obj 352 451 tabplay~ bufcpowi1;
#X msg 486 451 vasp bufcpowi1 bufcpowi2;
#X obj 59 368 vasp.update;
#X obj 59 388 bng 15 250 50 0 \$0-draw_display empty empty 0 -6 1152
8 -262144 -1 -1;
#X msg 59 328 vasp bufcpowi1 bufcpowi2;
#X obj 59 348 vasp.cpowi 2;
#X msg 59 422 vasp bufcpowi1 bufcpowi2;
#X obj 59 462 vasp.opt;
#X text 75 88 needs two vectors (or more complex pairs);
#X obj 59 552 VASP;
#X text 101 552 - vasp overview;
#X connect 3 0 4 0;
#X connect 5 0 27 0;
#X connect 6 0 7 0;
#X connect 7 0 8 0;
#X connect 11 0 20 0;
#X connect 17 0 6 0;
#X connect 20 0 9 0;
#X connect 20 0 9 1;
#X connect 21 0 10 0;
#X connect 22 0 23 0;
#X connect 24 0 25 0;
#X connect 25 0 22 0;
#X connect 26 0 5 0;
#X connect 27 0 3 0;
