#N canvas 56 65 877 571 10;
#X obj 71 32 cnv 15 15 15 empty empty vasp.minmax 0 10 1 14 -262144
-1 0;
#N canvas 0 0 450 300 graph1 0;
#X array bufmm1 88200 float 0;
#X coords 0 1 88199 -1 300 100 1;
#X restore 441 81 graph;
#N canvas 0 0 406 282 init 0;
#X obj 33 19 loadbang;
#X msg 33 45 symbol bufmm1 \, symbol bufmm2 \, symbol bufmm3;
#X msg 33 73 \; \$1 xticks 0 4410 10 \; \$1 yticks 0 0.25 2 \; \$1
ylabel 94000 -1 -0.5 0 0.5 1;
#X connect 0 0 1 0;
#X connect 1 0 2 0;
#X restore 723 496 pd init;
#N canvas 40 55 247 122 clear_buffer 0;
#X obj 54 79 vasp.update;
#X obj 54 56 vasp.= 0;
#X obj 54 26 inlet;
#X connect 1 0 0 0;
#X connect 2 0 1 0;
#X restore 65 491 pd clear_buffer;
#X obj 77 178 vasp.update;
#N canvas 0 0 450 300 graph1 0;
#X array bufmm2 88200 float 0;
#X coords 0 1 88199 -1 300 100 1;
#X restore 441 222 graph;
#N canvas 0 0 450 300 graph1 0;
#X array bufmm3 88200 float 0;
#X coords 0 1 88199 -1 300 100 1;
#X restore 442 366 graph;
#X msg 77 127 vasp bufmm1;
#X obj 77 152 vasp.osc 44100;
#X text 175 125 generate a sine wave at 1 Hz;
#X msg 65 468 vasp bufmm1 bufmm2 bufmm3;
#X obj 61 260 vasp.= bufmm1;
#X text 254 231 copy to new buffer;
#X text 709 60 source;
#X msg 61 236 vasp bufmm2;
#X obj 107 302 vasp.update;
#X msg 157 236 vasp bufmm3;
#X text 253 248 clear the other one;
#X obj 157 260 vasp.= 0;
#X text 71 63 splits a vasp (pair of vectors) into min and max values
;
#X text 652 202 min values;
#X text 649 346 max values;
#X obj 67 411 vasp.update;
#X obj 67 390 vasp.minmax;
#X msg 67 363 vasp bufmm2 bufmm3;
#X obj 65 534 VASP;
#X text 107 534 - vasp overview;
#X connect 7 0 8 0;
#X connect 8 0 4 0;
#X connect 10 0 3 0;
#X connect 11 0 15 0;
#X connect 14 0 11 0;
#X connect 16 0 18 0;
#X connect 18 0 15 0;
#X connect 23 0 22 0;
#X connect 24 0 23 0;
