#N canvas 43 34 867 431 10;
#N canvas 0 0 452 302 Hz_to_period_length 0;
#X floatatom 125 238 0 0 0;
#X obj 125 142 t b f;
#X text 164 238 period length in samples (float);
#X floatatom 125 80 0 0 0;
#X obj 125 206 / 1;
#X text 170 79 frequency in Hz;
#X obj 53 142 samplerate~;
#X obj 53 119 loadbang;
#X floatatom 125 175 5 0 0;
#X connect 1 0 8 0;
#X connect 1 1 4 1;
#X connect 3 0 1 0;
#X connect 4 0 0 0;
#X connect 6 0 8 0;
#X connect 7 0 6 0;
#X connect 8 0 4 0;
#X restore 78 302 pd Hz_to_period_length;
#X obj 71 32 cnv 15 15 15 empty empty vasp.phasor 0 10 1 14 -262144
-1 0;
#X obj 77 171 cnv 15 98 17 empty empty empty 20 12 0 14 -258699 -66577
0;
#N canvas 0 0 450 300 graph1 0;
#X array bufphasor 88200 float 0;
#X coords 0 1 88199 -1 300 100 1;
#X restore 412 131 graph;
#N canvas 0 0 398 274 init 0;
#X obj 33 19 loadbang;
#X msg 33 73 \; \$1 xticks 0 4410 10 \; \$1 xlabel 1.1 0 22050 44100
66150 88200 \; \$1 yticks 0 0.25 2 \; \$1 ylabel 94000 -1 -0.5 0 0.5
1;
#X msg 33 45 symbol bufphasor;
#X connect 0 0 2 0;
#X connect 2 0 1 0;
#X restore 692 310 pd init;
#N canvas 40 55 247 122 clear_buffer 0;
#X obj 54 79 vasp.update;
#X obj 54 56 vasp.= 0;
#X obj 54 26 inlet;
#X connect 1 0 0 0;
#X connect 2 0 1 0;
#X restore 547 310 pd clear_buffer;
#X text 71 83 optional argument/right inlet: frequency in period length
in samples;
#X obj 415 311 dac~;
#X obj 415 267 bng 15 250 50 0 empty empty empty 0 -6 0 8 -262144 -1
-1;
#X text 437 266 play;
#X obj 77 217 vasp.update;
#X obj 77 194 vasp.* 0.5;
#X text 71 63 vasp saw tooth ramp generator;
#X msg 77 127 vasp bufphasor;
#X obj 77 171 vasp.phasor 2205;
#X text 175 125 generate saw tooth at 20 Hz;
#X obj 415 288 tabplay~ bufphasor;
#X msg 547 287 vasp bufphasor;
#X floatatom 166 151 5 0 0;
#X connect 8 0 16 0;
#X connect 11 0 10 0;
#X connect 13 0 14 0;
#X connect 14 0 11 0;
#X connect 16 0 7 0;
#X connect 16 0 7 1;
#X connect 17 0 5 0;
#X connect 18 0 14 1;
