#N canvas 217 175 627 474 10;
#X text 56 100 most right outlet: rest (if there is one) of vectors
in a new vasp \, otherwise: bang;
#X text 56 70 split a vasp into its vectors;
#X text 56 85 argument: number of vectors to split;
#X obj 57 38 cnv 15 15 15 empty empty vasp.split 0 10 1 14 -262144
-1 0;
#X obj 354 302 table bufsplit1 88200;
#X obj 354 323 table bufsplit2 88200;
#X obj 354 345 table bufsplit3 88200;
#X obj 63 187 cnv 15 74 17 empty empty empty 20 12 0 14 -258699 -66577
0;
#X obj 130 215 prepend set;
#X msg 130 239;
#X obj 63 310 prepend set;
#X obj 63 278 vasp.join 2;
#X msg 235 153 vasp bufsplit1 bufsplit2 bufsplit3;
#X obj 63 187 vasp.split 2;
#X msg 63 153 vasp bufsplit1 buffsplit2;
#X msg 63 339;
#X connect 8 0 9 0;
#X connect 10 0 15 0;
#X connect 11 0 10 0;
#X connect 12 0 13 0;
#X connect 13 0 11 0;
#X connect 13 1 11 1;
#X connect 13 2 8 0;
#X connect 14 0 13 0;
