#N canvas 43 11 766 386 10;
#N canvas 40 55 247 122 clear_buffer 0;
#X obj 45 79 vasp.update;
#X obj 45 56 vasp.= 0;
#X obj 45 26 inlet;
#X connect 1 0 0 0;
#X connect 2 0 1 0;
#X restore 522 282 pd clear_buffer;
#N canvas 0 0 400 276 init 0;
#X obj 33 19 loadbang;
#X msg 33 73 \; \$1 xticks 0 4410 10 \; \$1 xlabel 1.1 0 22050 44100
66150 88200 \; \$1 yticks 0 0.25 2 \; \$1 ylabel 94000 -1 -0.5 0 0.5
1;
#X msg 33 45 symbol buffix;
#X connect 0 0 2 0;
#X connect 2 0 1 0;
#X restore 655 282 pd init;
#X obj 51 19 cnv 15 15 15 empty empty vasp.fix 0 10 1 14 -262144 -1
0;
#X text 149 140 generate a sine wave at 1Hz;
#X text 44 82 optional argument/right inlet: divisor;
#X text 44 67 vasp division;
#X obj 51 211 vasp.update;
#X obj 51 334 VASP;
#X text 93 334 - vasp overview;
#X msg 522 262 vasp buffix1;
#X obj 408 49 wavedisplay-simple buffix1 \$0;
#X msg 51 142 vasp buffix1;
#X msg 64 248 bang;
#X obj 48 278 s \$0-draw_display;
#X obj 51 177 vasp.osc 4853;
#N canvas 92 108 345 270 init 0;
#X obj 110 180 s \$0-sample-length;
#X msg 177 126 resize \$1;
#X obj 177 79 loadbang;
#X msg 177 100 88200;
#X obj 177 148 s buffix1;
#X connect 1 0 4 0;
#X connect 2 0 3 0;
#X connect 3 0 1 0;
#X connect 3 0 0 0;
#X restore 357 317 pd init;
#X obj 293 255 print;
#X msg 316 210 asdffasdf;
#X connect 6 0 12 0;
#X connect 9 0 0 0;
#X connect 11 0 14 0;
#X connect 12 0 13 0;
#X connect 14 0 6 0;
#X connect 17 0 16 0;
