#N canvas 235 91 487 483 10;
#X text 51 62 join several vasps into one;
#X text 51 78 argument: number of vasps to join;
#X text 51 95 left inlet triggers the output;
#X obj 51 19 cnv 15 15 15 empty empty vasp.join 0 10 1 14 -262144 -1
0;
#X obj 282 400 table bufjoin2 88200;
#X obj 282 379 table bufjoin1 88200;
#X obj 282 422 table bufjoin3 88200;
#X obj 61 282 cnv 15 68 17 empty empty empty 20 12 0 14 -258699 -66577
0;
#X msg 211 159 vasp bufjoin1 bufjoin2 bufjoin3;
#X obj 128 214 prepend set;
#X obj 61 305 prepend set;
#X obj 61 191 vasp.split 2;
#X obj 61 282 vasp.join 2;
#X msg 61 159 vasp bufjoin1 bufjoin2;
#X msg 128 238;
#X msg 61 329;
#X connect 8 0 11 0;
#X connect 9 0 14 0;
#X connect 10 0 15 0;
#X connect 11 0 12 0;
#X connect 11 1 12 1;
#X connect 11 2 9 0;
#X connect 12 0 10 0;
#X connect 13 0 11 0;
