#N canvas 258 153 572 301 10;
#X text 62 147 c \, d ... right operand;
#X text 62 132 a \, b ... left operand;
#X text 62 117 e \, f ... target buffers;
#X text 62 192 differences in lengths are adjusted to smaller vector
of each pair;
#X text 62 87 e+if=(a+ib)-(c+id);
#X text 62 176 vasp.c- needs 2 vectors per operand which are treated
as pairs;
#X text 62 71 complex subtraction;
#X obj 57 23 cnv 15 15 15 empty empty vasp.c- 0 10 1 14 -262144 -1
0;
#X obj 289 94 cnv 15 44 17 empty empty empty 20 12 0 14 -258699 -66577
0;
#X obj 289 94 vasp.c-;
