#N canvas 85 111 903 538 10;
#X obj 58 31 cnv 15 15 15 empty empty vasp.size? 0 10 1 14 -262144
-1 0;
#N canvas 0 0 408 284 init 0;
#X obj 33 19 loadbang;
#X msg 33 73 \; \$1 xticks 0 2 5 \; \$1 xlabel 1.1 0 10 20 30 40 50
\; \$1 yticks 0 0.25 2;
#X msg 33 45 symbol bufqsize;
#X connect 0 0 2 0;
#X connect 2 0 1 0;
#X restore 714 408 pd init;
#X text 119 374 abbreviation;
#X obj 62 463 VASP;
#X text 104 463 - vasp overview;
#X obj 62 225 vasp.size 100;
#N canvas 0 0 450 300 graph1 0;
#X array bufqsize 78 float 0;
#X coords 0 1 77 -1 300 100 1;
#X restore 453 153 graph;
#X floatatom 135 200 5 0 0;
#X obj 175 417 vasp.frames;
#X text 62 415 related objects:;
#X text 57 69 get the size of a buffer/array;
#X msg 62 152 vasp bufqsize;
#X obj 62 266 vasp.size?;
#X floatatom 62 302 5 0 0;
#X obj 63 374 vasp.s?;
#X obj 256 417 vasp.size;
#X connect 5 0 12 0;
#X connect 7 0 5 1;
#X connect 11 0 5 0;
#X connect 12 0 13 0;
