#N canvas 266 151 544 410 10;
#X text 51 63 outputs a vasp multiple times;
#X obj 43 28 cnv 15 15 15 empty empty vasp.multi 0 10 1 14 -262144
-1 0;
#X obj 56 111 table bufm 88200;
#X obj 223 232 prepend set;
#X msg 223 257;
#X text 51 80 argument: number of outlets (default 2);
#X text 109 312 abbreviation;
#X obj 56 232 prepend set;
#X msg 56 156 vasp 22050 bufm 44100 0;
#X msg 56 257;
#X obj 56 190 vasp.multi 2;
#X obj 58 311 vasp.m;
#X obj 58 366 VASP;
#X text 100 366 - vasp overview;
#X connect 3 0 4 0;
#X connect 7 0 9 0;
#X connect 8 0 10 0;
#X connect 10 0 7 0;
#X connect 10 1 3 0;
