#N canvas 227 188 566 292 10;
#X text 52 141 c \, d ... right operand;
#X text 52 126 a \, b ... left operand;
#X text 52 111 e \, f ... target buffers;
#X text 51 199 differences in lengths are adjusted to smaller vector
of each pair;
#X text 52 81 e+if=(a+ib)/(c+id);
#X text 52 168 vasp.c/ needs 2 vectors per operand which are treated
as pairs;
#X obj 55 34 cnv 15 15 15 empty empty vasp.c!/ 0 10 1 14 -262144 -1
0;
#X obj 275 79 cnv 15 50 17 empty empty empty 20 12 0 14 -258699 -66577
0;
#X text 52 65 reverse complex division;
#X obj 275 79 vasp.c!/;
