#N canvas 261 89 591 338 10;
#X text 52 66 get the number of vectors of a vasp;
#X obj 51 19 cnv 15 15 15 empty empty vasp.n? 0 10 1 14 -262144 -1
0;
#X floatatom 57 218 0 0 0;
#X obj 57 169 vasp.n?;
#X msg 57 112 vasp bufqn1;
#X msg 147 113 vasp bufqn1 bufqn2 bufqn3;
#X obj 46 272 VASP;
#X text 88 272 - vasp overview;
#X connect 3 0 2 0;
#X connect 4 0 3 0;
#X connect 5 0 3 0;
