#N canvas 20 55 834 458 10;
#X obj 75 32 cnv 15 15 15 empty empty vasp.xrot 0 10 1 14 -262144 -1
0;
#X text 351 311 clear;
#N canvas 0 0 413 295 clear_buffer 0;
#X obj 49 73 vasp.= 0;
#X obj 49 49 inlet;
#X obj 49 97 vasp.u;
#X obj 49 118 bng 15 250 50 0 \$0-draw_display empty empty 0 -6 1152
8 -262144 -1 -1;
#X connect 0 0 2 0;
#X connect 1 0 0 0;
#X connect 2 0 3 0;
#X restore 351 356 pd clear_buffer;
#X obj 63 316 cnv 15 92 17 empty empty empty 20 12 0 14 -258699 -66577
0;
#X obj 63 344 vasp.update;
#X obj 63 367 bng 15 250 50 0 \$0-draw_display empty empty 0 -6 1152
8 -262144 -1 -1;
#X text 72 73 optional argument/right inlet: value;
#X floatatom 148 291 8 0 0;
#X text 71 60 rotate buffer content;
#X msg 63 268 vasp bufxrot;
#X msg 351 333 vasp bufxrot;
#X obj 64 172 vasp.bevel;
#X obj 64 197 vasp.update;
#X obj 64 221 bng 15 250 50 0 \$0-draw_display empty empty 0 -6 1152
8 -262144 -1 -1;
#X msg 64 145 vasp 44100 bufxrot;
#X obj 189 197 vasp.update;
#X obj 189 220 bng 15 250 50 0 \$0-draw_display empty empty 0 -6 1152
8 -262144 -1 -1;
#X obj 189 171 vasp.!bevel;
#X msg 189 146 vasp 44100 bufxrot 44100;
#X obj 63 316 vasp.xrot 10000;
#N canvas 0 0 450 300 graph1 0;
#X array bufxrot 88200 float 0;
#X coords 0 1 88199 -1 300 100 1;
#X restore 410 151 graph;
#N canvas 0 0 394 270 init 0;
#X obj 33 19 loadbang;
#X msg 33 73 \; \$1 xticks 0 4410 10 \; \$1 xlabel 1.1 0 22050 44100
66150 88200 \; \$1 yticks 0 0.25 2 \; \$1 ylabel 94000 -1 -0.5 0 0.5
1;
#X msg 33 45 symbol bufxrot;
#X connect 0 0 2 0;
#X connect 2 0 1 0;
#X restore 686 355 pd init;
#X msg 64 114 bang;
#X connect 4 0 5 0;
#X connect 7 0 19 1;
#X connect 9 0 19 0;
#X connect 10 0 2 0;
#X connect 11 0 12 0;
#X connect 12 0 13 0;
#X connect 14 0 11 0;
#X connect 15 0 16 0;
#X connect 17 0 15 0;
#X connect 18 0 17 0;
#X connect 19 0 4 0;
#X connect 22 0 14 0;
#X connect 22 0 18 0;
