#N canvas 215 115 574 385 10;
#X text 236 116 buffer length = 88200 samples;
#X text 67 72 checks the dimensions of a vasp and corrects them;
#X obj 70 32 cnv 15 15 15 empty empty vasp.check 0 10 1 14 -262144
-1 0;
#X obj 69 114 table bufchk 88200;
#X obj 69 189 cnv 15 61 17 empty empty empty 20 12 0 14 -258699 -66577
0;
#X text 236 255 corrected vasp with maximum length at offset 44100
;
#X obj 69 224 prepend set;
#X msg 69 159 vasp 88200 bufchk 44100 0;
#X text 236 160 vasp with impossible dimensions;
#X msg 69 254 vasp 44100 bufchk 44100 0;
#X obj 69 189 vasp.check;
#X obj 70 323 cnv 15 49 17 empty empty empty 20 12 0 14 -258699 -66577
0;
#X obj 70 323 vasp.chk;
#X text 125 322 abbreviation;
#X connect 6 0 9 0;
#X connect 7 0 10 0;
#X connect 10 0 6 0;
