#N canvas 21 60 902 602 10;
#X obj 55 36 cnv 15 15 15 empty empty vasp.tilt 0 10 1 14 -262144 -1
0;
#N canvas 0 0 261 214 clear_buffer 0;
#X obj 49 73 vasp.= 0;
#X obj 49 49 inlet;
#X obj 49 97 vasp.u;
#X obj 49 118 bng 15 250 50 0 \$0-draw_display empty empty 0 -6 1152
8 -262144 -1 -1;
#X connect 0 0 2 0;
#X connect 1 0 0 0;
#X connect 2 0 3 0;
#X restore 546 442 pd clear_buffer;
#X obj 51 533 VASP;
#X text 93 532 - vasp overview;
#N canvas 0 0 450 300 graph1 0;
#X array buftilt1 100 float 1;
#A 0 0.32 0.32 0.74 0.2 -0.0400002 -0.24 -0.48 -0.0400002 0.2 0.36
0.0199998 -0.1 -0.18 -0.24 -0.2 -0.0800002 -0.0600002 0.14 -0.0400002
-0.2 0.0399998 0.0399998 0.0399998 0.0599998 0.0799999 0.0899999 0.0999999
0.14 0.18 0.24 0.28 0.32 0.38 0.42 0.48 0.5 0.5 0.44 0.36 0.2 0.0599998
-0.0600002 -0.2 -0.34 -0.44 -0.44 -0.46 -0.4 -0.34 -0.24 -0.12 -0.1
-0.2 -0.28 -0.36 -0.44 -0.48 -0.48 -0.48 -0.48 -0.46 -0.44 -0.52 -0.52
-0.48 -0.4 0.46 0.46 0.46 0.46 0.46 0.44 0.34 0.2 0.0999999 -1.3411e-007
-0.0800002 -0.12 -0.13 -0.14 -0.16 -0.14 -0.0600002 0.56 0.58 0.6 0.6
0.52 0.44 0.36 0.26 -0.72 0.22 0.68 0.74 0.76 0.66 0.66 0.76 0.82;
#X coords 0 1 99 -1 300 100 1;
#X restore 480 64 graph;
#N canvas 0 0 431 213 init 0;
#X obj 33 19 loadbang;
#X msg 33 73 \; \$1 xticks 0 1 10 \; \$1 xlabel 1.1 0 20 40 60 80 100
\; \$1 yticks 0 0.25 2 \; \$1 ylabel 105 -1 -0.5 0 0.5 1;
#X msg 33 45 symbol buftilt1 \, symbol buftilt2;
#X obj 295 27 loadbang;
#X msg 295 49 1;
#X obj 295 71 s \$0-ratio;
#X connect 0 0 2 0;
#X connect 2 0 1 0;
#X connect 3 0 4 0;
#X connect 4 0 5 0;
#X restore 685 439 pd init;
#N canvas 0 0 450 300 graph1 0;
#X array buftilt2 100 float 0;
#X coords 0 1 99 -1 300 100 1;
#X restore 483 205 graph;
#X text 420 58 SOURCE;
#X obj 344 357 pack;
#X obj 344 331 t b f;
#X text 281 284 ratio;
#X text 199 411 needs one or two args;
#X text 200 428 ratio \, center;
#X text 231 264 edge;
#X text 243 148 none;
#X text 244 175 linear;
#X text 231 241 zero (default);
#X text 243 200 4 point (default);
#X text 243 121 in place (dirty);
#X obj 128 435 vasp.u;
#X obj 128 409 vasp.tilt;
#X obj 344 308 nbx 5 14 -1000 1000 0 1 empty empty empty 0 -6 0 10
-24198 -1 -1 25 256;
#X obj 281 308 nbx 5 14 -3 3 0 0 empty \$0-ratio empty 0 -6 576 10
-24198 -1 -1 1.25 256;
#X text 344 284 center sample;
#X msg 181 242 fill 0;
#X msg 181 268 fill 1;
#X msg 183 122 inter 0;
#X msg 183 148 inter 1;
#X msg 183 174 inter 2;
#X msg 183 200 inter 3;
#X obj 36 122 bng 20 250 50 0 empty \$0-trigger empty 0 -6 576 8 -262144
-1 -1;
#X obj 344 398 bng 15 250 50 0 \$0-trigger empty empty 0 -6 1152 8
-262144 -1 -1;
#X msg 36 159 vasp buftilt1;
#X obj 36 185 vasp.-> buftilt2;
#X msg 546 416 vasp buftilt2;
#X text 55 86 optional argument/right inlet: list of ratio and center
sample;
#X obj 160 493 vasp.xtilt;
#X text 56 492 related object:;
#X text 55 63 resample buffer data around a center sample;
#X obj 344 378 t b l;
#X connect 8 0 39 0;
#X connect 9 0 8 0;
#X connect 9 1 8 1;
#X connect 20 0 19 0;
#X connect 21 0 9 0;
#X connect 22 0 8 0;
#X connect 24 0 20 0;
#X connect 25 0 20 0;
#X connect 26 0 20 0;
#X connect 27 0 20 0;
#X connect 28 0 20 0;
#X connect 29 0 20 0;
#X connect 30 0 32 0;
#X connect 32 0 33 0;
#X connect 33 1 20 0;
#X connect 34 0 1 0;
#X connect 39 0 31 0;
#X connect 39 1 20 1;
