#N canvas 43 34 763 368 10;
#X obj 71 32 cnv 15 15 15 empty empty vasp.!bevel 0 10 1 14 -262144
-1 0;
#X obj 77 171 cnv 15 68 17 empty empty empty 20 12 0 14 -258699 -66577
0;
#N canvas 0 0 450 300 graph1 0;
#X array bufbevel1 88200 float 0;
#X coords 0 1 88199 -1 300 100 1;
#X restore 341 76 graph;
#N canvas 0 0 404 280 init 0;
#X obj 33 19 loadbang;
#X msg 33 73 \; \$1 xticks 0 4410 10 \; \$1 xlabel 1.1 0 22050 44100
66150 88200 \; \$1 yticks 0 0.25 2 \; \$1 ylabel 94000 -1 -0.5 0 0.5
1;
#X msg 33 45 symbol bufbevel1;
#X connect 0 0 2 0;
#X connect 2 0 1 0;
#X restore 621 255 pd init;
#N canvas 40 55 247 122 clear_buffer 0;
#X obj 54 79 vasp.update;
#X obj 54 56 vasp.= 0;
#X obj 54 26 inlet;
#X connect 1 0 0 0;
#X connect 2 0 1 0;
#X restore 476 255 pd clear_buffer;
#X obj 77 217 vasp.update;
#X msg 476 232 vasp bufbevel1;
#X msg 77 127 vasp bufbevel1;
#X obj 77 171 vasp.!bevel;
#X text 71 63 generates a linear ramp from 1 to 0;
#X connect 6 0 4 0;
#X connect 7 0 8 0;
#X connect 8 0 5 0;
