#N canvas 213 175 701 497 10;
#X msg 62 292 vasp bufup;
#X obj 62 313 vasp.= 0;
#X text 145 226 update the graphics;
#X text 136 125 generate a sine wave;
#X obj 62 185 vasp.osc 22050;
#X text 57 69 updates the graphics of a patcher (e.g. waveform);
#X text 140 291 use vasp.update at the end of a chain of vasp operations
\, although most vasp objects are updating automatically;
#X obj 58 41 cnv 15 15 15 empty empty vasp.update 0 10 1 14 -262144
-1 0;
#N canvas 0 0 450 300 graph1 0;
#X array bufup 88200 float 0;
#X coords 0 1 88199 -1 300 100 1;
#X restore 347 141 graph;
#N canvas 0 0 396 272 init 0;
#X obj 33 19 loadbang;
#X msg 33 73 \; \$1 xticks 0 4410 10 \; \$1 xlabel 1.1 0 22050 44100
66150 88200 \; \$1 yticks 0 0.25 2 \; \$1 ylabel 94000 -1 -0.5 0 0.5
1;
#X msg 33 45 symbol bufup;
#X connect 0 0 2 0;
#X connect 2 0 1 0;
#X restore 607 383 pd init;
#X obj 62 227 vasp.update;
#X msg 62 125 vasp bufup;
#X obj 62 374 vasp.u;
#X text 119 374 abbreviation;
#X msg 62 351 vasp bufup;
#X obj 57 424 VASP;
#X text 99 424 - vasp overview;
#X connect 0 0 1 0;
#X connect 4 0 10 0;
#X connect 11 0 4 0;
#X connect 14 0 12 0;
