#N canvas 45 63 909 554 10;
#X obj 58 31 cnv 15 15 15 empty empty vasp.frames= 0 10 1 14 -262144
-1 0;
#N canvas 0 0 450 300 graph1 0;
#X array bufsfram1 88200 float 0;
#X coords 0 1 88199 -1 300 100 1;
#X restore 544 107 graph;
#N canvas 0 0 392 216 init 0;
#X obj 33 19 loadbang;
#X msg 33 73 \; \$1 xticks 0 4410 10 \; \$1 xlabel 1.1 0 22050 44100
66150 88200 \; \$1 yticks 0 0.25 2 \; \$1 ylabel 94000 -1 -0.5 0 0.5
1;
#X msg 33 45 symbol bufsfram1;
#X msg 140 45 symbol bufsfram2;
#X connect 0 0 2 0;
#X connect 0 0 3 0;
#X connect 2 0 1 0;
#X connect 3 0 1 0;
#X restore 796 469 pd init;
#X obj 57 402 vasp.update;
#X text 113 443 abbreviation;
#N canvas 0 0 450 300 graph1 0;
#X array bufsfram2 88200 float 0;
#X coords 0 1 88199 -1 300 100 1;
#X restore 544 226 graph;
#X text 56 87 argument/right inlet: value in samples;
#X obj 57 442 vasp.f+;
#X obj 57 495 VASP-HELP;
#X obj 57 378 vasp.noise;
#X obj 58 200 vasp.update;
#X msg 58 153 vasp bufsfram1;
#X msg 57 261 vasp bufsfram1;
#X obj 57 284 vasp.frames= 0.7;
#X obj 58 176 vasp.= env -1 0 1 44100 -1 88200;
#X floatatom 148 305 12 0 0;
#X text 56 56 searches for a value (starting at the end) and sets the
length of the vasp according to it;
#X text 57 104 right outlet: frames relatively to the starting point
of the search;
#X text 147 319 since the search runs from the end to the left \, this
value is negative;
#X obj 57 356 vasp.-> bufsfram2;
#X text 275 444 related object:;
#X obj 381 443 vasp.o=;
#X obj 190 148 bng 15 250 50 0 empty empty empty 0 -6 0 8 -24198 -1
-1;
#X text 222 148 1 generate a ramp;
#X obj 190 260 bng 15 250 50 0 empty empty empty 0 -6 0 8 -24198 -1
-1;
#X text 218 274 the value 0.7 appears in the ramp;
#X text 218 259 2 generate noise until the position \, where;
#N canvas 77 60 409 578 dir_and_target 0;
#X text 46 56 forward;
#X text 48 154 backward;
#X text 31 22 search direction;
#X text 58 369 both;
#X text 28 401 negative;
#X text 58 337 positive;
#X text 28 314 target slope;
#X text 46 99 both (nearest);
#X obj 183 210 vasp.noise;
#X obj 183 231 vasp.u;
#X msg 183 189 vasp bufsoffs2 \$1;
#X msg 110 156 dir -1;
#X msg 111 121 dir 0;
#X msg 110 59 dir 1;
#X obj 183 164 vasp.o?;
#X obj 185 90 t a b;
#X obj 210 111 bng 15 250 50 0 \$0-clear empty empty 0 -6 1152 8 -262144
-1 -1;
#X text 228 111 (clear);
#X obj 185 135 vasp.offset= 0.1;
#X msg 185 71 vasp bufsoffs1 500;
#X floatatom 276 161 5 0 0;
#X msg 126 336 slope 1;
#X msg 110 367 slope 0;
#X msg 97 399 slope -1;
#X obj 239 484 vasp.noise;
#X obj 239 505 vasp.u;
#X msg 239 463 vasp bufsoffs2 \$1;
#X obj 239 438 vasp.o?;
#X obj 239 355 t a b;
#X obj 264 376 bng 15 250 50 0 \$0-clear empty empty 0 -6 1152 8 -262144
-1 -1;
#X text 282 376 (clear);
#X obj 239 400 vasp.offset= 0.1;
#X floatatom 330 426 5 0 0;
#X text 29 290 find values with positive and/or negative slope;
#X msg 239 336 vasp bufsoffs1;
#X connect 8 0 9 0;
#X connect 10 0 8 0;
#X connect 11 0 18 0;
#X connect 12 0 18 0;
#X connect 13 0 18 0;
#X connect 14 0 10 0;
#X connect 15 0 18 0;
#X connect 15 1 16 0;
#X connect 18 0 14 0;
#X connect 18 1 20 0;
#X connect 19 0 15 0;
#X connect 21 0 31 0;
#X connect 22 0 31 0;
#X connect 23 0 31 0;
#X connect 24 0 25 0;
#X connect 26 0 24 0;
#X connect 27 0 26 0;
#X connect 28 0 31 0;
#X connect 28 1 29 0;
#X connect 31 0 27 0;
#X connect 31 1 32 0;
#X connect 34 0 28 0;
#X restore 586 418 pd dir_and_target;
#X text 540 399 more features!;
#X obj 538 415 cnv 15 15 15 empty empty --> 0 10 0 14 -262144 -24198
0;
#X connect 9 0 3 0;
#X connect 11 0 14 0;
#X connect 12 0 13 0;
#X connect 13 0 19 0;
#X connect 13 1 15 0;
#X connect 14 0 10 0;
#X connect 19 1 9 0;
#X connect 22 0 11 0;
#X connect 24 0 12 0;
