#N canvas 91 83 848 564 10;
#N canvas 92 108 397 399 inside 0;
#X obj 87 206 soundfiler;
#X obj 105 290 s \$0-sample-length;
#X obj 87 260 s \$0-draw_display;
#X msg 235 258 resize \$1;
#N canvas 0 0 691 318 menuhandler 0;
#X obj 69 270 outlet;
#X msg 111 216 color \$1 \$2;
#X obj 183 270 outlet;
#X msg 225 216 color \$1 \$2;
#X obj 297 270 outlet;
#X msg 339 216 color \$1 \$2;
#X obj 411 79 r \$0-plastic;
#X obj 411 270 outlet;
#X obj 453 241 s \$0-plastic-color;
#X msg 453 216 color \$1 \$2;
#X obj 69 79 r \$0-bass;
#X obj 183 79 r \$0-beat;
#X obj 297 79 r \$0-fly;
#X obj 111 241 s \$0-bass-color;
#X obj 225 241 s \$0-beat-color;
#X obj 339 241 s \$0-fly-color;
#X obj 69 108 t b b b;
#X obj 183 108 t b b b;
#X obj 297 108 t b b b;
#X obj 411 108 t b b b;
#X msg 111 133 6 12;
#X msg 79 133 1 10;
#X msg 191 133 1 10;
#X msg 225 133 6 12;
#X msg 306 133 1 10;
#X msg 339 133 6 12;
#X msg 419 132 1 10;
#X msg 453 133 6 12;
#X connect 1 0 13 0;
#X connect 3 0 14 0;
#X connect 5 0 15 0;
#X connect 6 0 19 0;
#X connect 9 0 8 0;
#X connect 10 0 16 0;
#X connect 11 0 17 0;
#X connect 12 0 18 0;
#X connect 16 0 0 0;
#X connect 16 1 21 0;
#X connect 16 2 20 0;
#X connect 17 0 2 0;
#X connect 17 1 22 0;
#X connect 17 2 23 0;
#X connect 18 0 4 0;
#X connect 18 1 24 0;
#X connect 18 2 25 0;
#X connect 19 0 7 0;
#X connect 19 1 26 0;
#X connect 19 2 27 0;
#X connect 20 0 1 0;
#X connect 21 0 3 0;
#X connect 21 0 5 0;
#X connect 21 0 9 0;
#X connect 22 0 1 0;
#X connect 22 0 5 0;
#X connect 22 0 9 0;
#X connect 23 0 3 0;
#X connect 24 0 1 0;
#X connect 24 0 3 0;
#X connect 24 0 9 0;
#X connect 25 0 5 0;
#X connect 26 0 5 0;
#X connect 26 0 3 0;
#X connect 26 0 1 0;
#X connect 27 0 9 0;
#X restore 77 43 pd menuhandler;
#X obj 235 211 loadbang;
#X obj 49 133 loadbang;
#X msg 77 79 symbol bass.aif;
#X msg 103 107 symbol beat.aif;
#X msg 129 133 symbol fly.aif;
#X msg 156 160 symbol plastic.aif;
#X obj 235 280 s bufsync1;
#X obj 245 304 s bufsync2;
#X msg 235 232 88200;
#X msg 88 185 read -resize \$1 bufsync1;
#X obj 87 230 t b f f;
#X connect 0 0 15 0;
#X connect 3 0 11 0;
#X connect 3 0 12 0;
#X connect 4 0 7 0;
#X connect 4 1 8 0;
#X connect 4 2 9 0;
#X connect 4 3 10 0;
#X connect 5 0 13 0;
#X connect 6 0 9 0;
#X connect 7 0 14 0;
#X connect 8 0 14 0;
#X connect 9 0 14 0;
#X connect 10 0 14 0;
#X connect 13 0 3 0;
#X connect 13 0 1 0;
#X connect 14 0 0 0;
#X connect 15 0 2 0;
#X connect 15 1 1 0;
#X connect 15 2 3 0;
#X restore 711 485 pd inside;
#X obj 96 172 hdl 15 1 0 6 \$0-beat empty empty 0 -6 1152 8 -262144
-1 -1 0;
#X obj 96 172 cnv 15 90 15 empty \$0-beat-color beat.aif 5 8 576 8
-166441 -233017 0;
#X obj 96 190 hdl 15 1 0 6 \$0-fly empty empty 0 -6 1152 8 -262144
-1 -1 3;
#X obj 96 190 cnv 15 90 15 empty \$0-fly-color fly.aif 5 8 576 8 -225271
-33289 0;
#X obj 96 154 hdl 15 1 0 6 \$0-bass empty empty 0 -6 1152 8 -262144
-1 -1 2;
#X obj 96 154 cnv 15 90 15 empty \$0-bass-color bass.aif 5 8 576 8
-166441 -233017 0;
#X obj 96 208 hdl 15 1 0 6 \$0-plastic empty empty 0 -6 1152 8 -262144
-1 -1 3;
#X obj 96 208 cnv 15 90 15 empty \$0-plastic-color plastic.aif 5 8
576 8 -166441 -233017 0;
#X obj 463 297 wavedisplay-simple bufsync2 \$0;
#X obj 463 155 wavedisplay-simple bufsync1 \$0;
#X obj 75 32 cnv 15 15 15 empty empty vasp.sync 0 10 1 14 -262144 -1
0;
#X text 53 64 syncs two or more vasps;
#X text 55 111 argument: number of vasps to be synced;
#X text 55 153 read;
#X msg 61 253 vasp bufsync1 bufsync2;
#X obj 61 284 vasp.cfft;
#X obj 122 335 vasp.= 0;
#X obj 334 440 tabplay~ bufsync1;
#X obj 353 460 tabplay~ bufsync2;
#X obj 334 484 dac~;
#X msg 334 416 bang;
#X obj 61 409 vasp.update;
#N canvas 0 0 413 295 clear_buffers 0;
#X obj 49 73 vasp.= 0;
#X obj 49 49 inlet;
#X obj 49 97 vasp.u;
#X obj 49 118 bng 15 250 50 0 \$0-draw_display empty empty 0 -6 1152
8 -262144 -1 -1;
#X connect 0 0 2 0;
#X connect 1 0 0 0;
#X connect 2 0 3 0;
#X restore 149 483 pd clear_buffers;
#X obj 61 431 bng 15 250 50 0 \$0-draw_display empty empty 0 -6 1152
8 -262144 -1 -1;
#X obj 122 313 vasp.upper;
#X obj 61 388 vasp.c!fft;
#X msg 149 457 vasp bufsync1 bufsync2;
#X text 709 137 bufsync1;
#X text 713 281 bufsync2;
#X obj 61 366 cnv 15 68 17 empty empty empty 20 12 0 14 -258699 -66577
0;
#X obj 61 366 vasp.sync 2;
#X text 54 79 vasp.sync waits until all inlets have received a vasp
and then outputs them and resets its status;
#X text 143 365 outputs vasps after every inlet received one;
#X connect 15 0 16 0;
#X connect 16 0 25 0;
#X connect 16 0 31 0;
#X connect 17 0 31 1;
#X connect 18 0 20 0;
#X connect 19 0 20 1;
#X connect 21 0 18 0;
#X connect 21 0 19 0;
#X connect 22 0 24 0;
#X connect 25 0 17 0;
#X connect 26 0 22 0;
#X connect 27 0 23 0;
#X connect 31 0 26 0;
