#N canvas 91 83 882 566 10;
#N canvas 92 108 407 409 inside 0;
#X obj 66 154 soundfiler;
#X obj 84 238 s \$0-sample-length;
#X obj 66 208 s \$0-draw_display;
#X msg 214 206 resize \$1;
#X obj 214 159 loadbang;
#X obj 67 53 loadbang;
#X msg 214 180 88200;
#X obj 66 178 t b f f;
#X msg 67 133 read -resize \$1 bufre;
#X obj 214 228 s bufre;
#X obj 224 252 s bufim;
#X obj 67 101 filelisthandler \$0;
#X msg 67 79 4;
#X connect 0 0 7 0;
#X connect 3 0 9 0;
#X connect 3 0 10 0;
#X connect 4 0 6 0;
#X connect 5 0 12 0;
#X connect 6 0 3 0;
#X connect 6 0 1 0;
#X connect 7 0 2 0;
#X connect 7 1 1 0;
#X connect 7 2 3 0;
#X connect 8 0 0 0;
#X connect 11 0 8 0;
#X connect 12 0 11 0;
#X restore 781 472 pd inside;
#X obj 75 32 cnv 15 15 15 empty empty vasp.cfft 0 10 1 14 -262144 -1
0;
#X obj 61 276 cnv 15 56 17 empty empty empty 20 12 0 14 -258699 -66577
0;
#X obj 304 113 filelist \$0;
#X text 71 53 complex fourier transformation (giant);
#X text 70 68 cfft needs two buffers;
#X msg 67 113 vasp bufre;
#X obj 67 136 vasp.noise;
#X text 151 112 generate white noise or;
#X obj 67 159 vasp.* 0.5;
#X obj 67 182 vasp.update;
#X obj 67 205 bng 15 250 50 0 \$0-draw_display empty empty 0 -6 1152
8 -262144 -1 -1;
#X obj 61 411 vasp.update;
#X obj 61 434 bng 15 250 50 0 \$0-draw_display empty empty 0 -6 1152
8 -262144 -1 -1;
#X obj 61 388 vasp.c!fft;
#X obj 61 276 vasp.cfft;
#X msg 61 253 vasp bufre bufim;
#X obj 61 297 vasp.update;
#X obj 61 320 bng 15 250 50 0 \$0-draw_display empty empty 0 -6 1152
8 -262144 -1 -1;
#X msg 61 365 vasp bufre bufim;
#X text 758 100 real;
#X text 768 242 imaginary;
#X text 524 385 0 Hz;
#X text 660 384 sr/2;
#X obj 520 115 wavedisplay-select bufre \$0;
#X obj 521 264 wavedisplay-select bufim \$0;
#X text 160 471 <-- click to open;
#X text 789 386 44.1 kHz;
#X text 145 271 convert a signal from the time domain into the frequency
domain. each sample now represents a frequency (range from 0 to 44.1
kHz).;
#X obj 59 473 filter_example;
#X obj 352 474 dac~;
#N canvas 0 0 413 295 clear_buffers 0;
#X obj 49 73 vasp.= 0;
#X obj 49 49 inlet;
#X obj 49 97 vasp.u;
#X obj 49 118 bng 15 250 50 0 \$0-draw_display empty empty 0 -6 1152
8 -262144 -1 -1;
#X connect 0 0 2 0;
#X connect 1 0 0 0;
#X connect 2 0 3 0;
#X restore 486 474 pd clear_buffers;
#X obj 352 431 bng 15 250 50 0 empty empty empty 0 -6 0 8 -262144 -1
-1;
#X text 374 428 play;
#X text 486 429 clear;
#X obj 352 451 tabplay~ bufre;
#X msg 486 451 vasp bufre bufim;
#X connect 6 0 7 0;
#X connect 7 0 9 0;
#X connect 9 0 10 0;
#X connect 10 0 11 0;
#X connect 12 0 13 0;
#X connect 14 0 12 0;
#X connect 15 0 17 0;
#X connect 16 0 15 0;
#X connect 17 0 18 0;
#X connect 19 0 14 0;
#X connect 32 0 35 0;
#X connect 35 0 30 0;
#X connect 35 0 30 1;
#X connect 36 0 31 0;
