#N canvas 80 113 821 440 10;
#X obj 71 32 cnv 15 15 15 empty empty vasp.sum? 0 10 1 14 -262144 -1
0;
#N canvas 40 55 281 170 clear_buffer 0;
#X obj 54 79 vasp.update;
#X obj 54 56 vasp.= 0;
#X obj 54 26 inlet;
#X obj 54 108 bng 15 250 50 0 \$0-draw_display empty empty 0 -6 1152
8 -262144 -1 -1;
#X connect 0 0 3 0;
#X connect 1 0 0 0;
#X connect 2 0 1 0;
#X restore 468 280 pd clear_buffer;
#N canvas 0 0 450 300 graph1 0;
#X array bufqsum 88200 float 0;
#X coords 0 1 88199 -1 300 100 1;
#X restore 339 115 graph;
#N canvas 0 0 396 272 init 0;
#X obj 33 19 loadbang;
#X msg 33 73 \; \$1 xticks 0 4410 10 \; \$1 xlabel 1.1 0 22050 44100
66150 88200 \; \$1 yticks 0 0.25 2 \; \$1 ylabel 94000 -1 -0.5 0 0.5
1;
#X msg 33 45 symbol bufqsum;
#X connect 0 0 2 0;
#X connect 2 0 1 0;
#X restore 615 284 pd init;
#X obj 73 144 vasp.osc 44100;
#X obj 73 165 vasp.* 0.5;
#X obj 73 191 vasp.update;
#X floatatom 99 309 7 0 0 0 - - -;
#X obj 76 387 VASP-HELP;
#X text 68 58 get sum of sample values of a vasp;
#X text 70 75 right outlet: sum of sample values;
#X msg 73 123 vasp bufqsum;
#X msg 468 257 vasp bufqsum;
#X msg 75 258 vasp bufqsum;
#X obj 75 278 vasp.sum?;
#X text 150 309 >>>> sum;
#X floatatom 281 310 7 0 0 0 - - -;
#X msg 281 261 vasp bufqsum;
#X text 330 308 >>>> RMS value;
#N canvas 515 22 454 304 rms 0;
#X obj 35 150 vasp.sum?;
#X obj 44 62 vasp.!;
#X obj 35 124 vasp.sqr;
#X obj 46 96 t a a;
#X obj 183 124 vasp.f?;
#X obj 141 193 /;
#X obj 141 217 sqrt;
#X obj 42 26 inlet;
#X obj 142 262 outlet;
#X text 92 63 make temporary buffer;
#X text 229 123 count samples;
#X text 93 148 sum squares;
#X text 185 263 RMS;
#X connect 0 1 5 0;
#X connect 1 0 3 0;
#X connect 2 0 0 0;
#X connect 3 0 2 0;
#X connect 3 1 4 0;
#X connect 4 0 5 1;
#X connect 5 0 6 0;
#X connect 6 0 8 0;
#X connect 7 0 1 0;
#X restore 282 285 pd rms;
#X connect 4 0 5 0;
#X connect 5 0 6 0;
#X connect 11 0 4 0;
#X connect 12 0 1 0;
#X connect 13 0 14 0;
#X connect 14 1 7 0;
#X connect 17 0 19 0;
#X connect 19 0 16 0;
