#N canvas 104 78 750 508 10;
#X msg 124 76 vasp buffer1;
#N canvas 40 55 255 173 clear_buffer 0;
#X obj 59 79 vasp.update;
#X obj 59 56 vasp.= 0;
#X obj 59 26 inlet;
#X connect 1 0 0 0;
#X connect 2 0 1 0;
#X restore 497 293 pd clear_buffer;
#N canvas 0 0 450 300 graph167 0;
#X array buffer1 88200 float 0;
#X coords 0 1 88199 -1 300 120 1;
#X restore 398 61 graph;
#N canvas 0 0 398 274 init 0;
#X obj 36 19 loadbang;
#X msg 36 73 \; \$1 xticks 0 4410 10 \; \$1 xlabel 1.1 0 22050 44100
66150 88200 \; \$1 yticks 0 0.25 2 \; \$1 ylabel 94000 -1 -0.5 0 0.5
1;
#X msg 36 45 symbol buffer1;
#X connect 0 0 2 0;
#X connect 2 0 1 0;
#X restore 621 293 pd init;
#X msg 497 272 vasp buffer1;
#X obj 124 108 vasp.!;
#X connect 0 0 5 0;
#X connect 4 0 1 0;
