#N canvas 66 17 876 607 10;
#N canvas 40 55 255 173 clear_buffer 0;
#X obj 59 79 vasp.update;
#X obj 59 56 vasp.= 0;
#X obj 59 26 inlet;
#X connect 1 0 0 0;
#X connect 2 0 1 0;
#X restore 497 300 pd clear_buffer;
#N canvas 0 0 450 300 graph167 0;
#X array bufenv1 88200 float 0;
#X coords 0 1 88199 -1 300 120 1;
#X restore 513 99 graph;
#N canvas 431 348 401 213 init 0;
#X obj 36 19 loadbang;
#X msg 36 73 \; \$1 xticks 0 4410 10 \; \$1 xlabel 1.1 0 22050 44100
66150 88200 \; \$1 yticks 0 0.25 2 \; \$1 ylabel 94000 -1 -0.5 0 0.5
1;
#X msg 36 45 symbol bufenv1;
#X connect 0 0 2 0;
#X connect 2 0 1 0;
#X restore 621 293 pd init;
#X obj 48 469 vasp.u;
#X text 43 17 create envelopes from data-pairs;
#X text 43 36 value - position in samples \, value2 position2 \, ...
;
#X msg 497 272 vasp bufenv1;
#X msg 46 103 vasp bufenv1;
#X obj 46 159 vasp.u;
#X obj 46 319 vasp.=;
#X obj 46 263 t b a;
#X msg 46 291 vasp bufenv1;
#X obj 46 347 vasp.u;
#X msg 46 222 env 0 0 0.8 1500 1 4000 0.95 10000 0.5 20000 0.15 55000
0 88200;
#X msg 48 397 vasp bufenv1;
#X obj 48 421 vasp.!window lin;
#X obj 48 447 vasp.* env 0 0 1 22050;
#X text 49 92;
#X obj 46 131 vasp.= env 1 0 -0.6 70000;
#X text 206 129 an envelope as a creation argument;
#X text 45 199 or sent as message;
#X text 159 394 used as an argument alternatively to a value or vasp
;
#X connect 6 0 0 0;
#X connect 7 0 18 0;
#X connect 9 0 12 0;
#X connect 10 0 11 0;
#X connect 10 1 9 1;
#X connect 11 0 9 0;
#X connect 13 0 10 0;
#X connect 14 0 15 0;
#X connect 15 0 16 0;
#X connect 16 0 3 0;
#X connect 18 0 8 0;
