#N canvas 108 98 754 512 10;
#X msg 122 75 vasp buffer1;
#N canvas 40 55 255 173 clear_buffer 0;
#X obj 59 79 vasp.update;
#X obj 59 56 vasp.= 0;
#X obj 59 26 inlet;
#X connect 1 0 0 0;
#X connect 2 0 1 0;
#X restore 497 293 pd clear_buffer;
#N canvas 0 0 450 300 graph167 0;
#X array buffer1 88200 float 0;
#X coords 0 1 88199 -1 300 120 1;
#X restore 398 61 graph;
#N canvas 0 0 398 274 init 0;
#X obj 36 19 loadbang;
#X msg 36 73 \; \$1 xticks 0 4410 10 \; \$1 xlabel 1.1 0 22050 44100
66150 88200 \; \$1 yticks 0 0.25 2 \; \$1 ylabel 94000 -1 -0.5 0 0.5
1;
#X msg 36 45 symbol buffer1;
#X connect 0 0 2 0;
#X connect 2 0 1 0;
#X restore 621 293 pd init;
#X msg 497 272 vasp buffer1;
#X obj 121 180 vasp.=;
#X obj 117 226 vasp.u;
#X floatatom 234 82 5 0 0;
#X obj 244 146 * 1000;
#X text 77 282 alternativ zu einem vasp auf der argumentseite;
#X obj 310 346 vasp.! 88200;
#X obj 310 402 vasp.=;
#X floatatom 418 313 5 0 0;
#X obj 418 343 * 1000;
#X obj 310 433 vasp.-> buffer1;
#X obj 393 466 vasp.u;
#X text 271 455 quelle;
#X text 410 442 ziel;
#X msg 310 317 vasp asd;
#X msg 152 122 env 0 0 1 \$1;
#X msg 341 374 env 0 0 1 \$1;
#X connect 0 0 5 0;
#X connect 4 0 1 0;
#X connect 5 0 6 0;
#X connect 7 0 0 0;
#X connect 7 0 8 0;
#X connect 8 0 19 0;
#X connect 10 0 11 0;
#X connect 11 0 14 0;
#X connect 12 0 13 0;
#X connect 13 0 20 0;
#X connect 14 1 15 0;
#X connect 18 0 10 0;
#X connect 19 0 5 1;
#X connect 20 0 11 1;
#X connect 20 0 18 0;
