#N canvas 270 238 441 415 12;
#X obj 41 71 vasp.!;
#X obj 41 116 vasp.sqr;
#X obj 42 205 sqrt;
#X obj 42 26 inlet;
#X obj 42 293 outlet;
#X text 104 72 make temporary buffer;
#X text 99 295 RMS;
#X obj 41 154 vasp.qmean;
#X text 131 156 mean value;
#X connect 0 0 1 0;
#X connect 1 0 7 0;
#X connect 2 0 4 0;
#X connect 3 0 0 0;
#X connect 7 0 2 0;
