#N canvas 449 154 293 468 12;
#X obj 20 35 inlet;
#X obj 20 312 outlet;
#X obj 20 150 vasp.cfft;
#X obj 51 209 vasp.= 0;
#X text 19 8 Hilbert transformation;
#X obj 20 246 vasp.sync 2;
#X obj 51 181 vasp.upper;
#X obj 54 63 vasp.im;
#X obj 54 91 vasp.= 0;
#X obj 20 120 vasp.sync 2;
#X obj 20 278 vasp.c!fft;
#X connect 0 0 7 0;
#X connect 0 0 9 0;
#X connect 2 0 6 0;
#X connect 2 0 5 0;
#X connect 3 0 5 1;
#X connect 5 0 10 0;
#X connect 6 0 3 0;
#X connect 7 0 8 0;
#X connect 8 0 9 1;
#X connect 9 0 2 0;
#X connect 10 0 1 0;
