#N canvas 42 186 260 378 12;
#X obj 53 101 vasp.frames?;
#X obj 23 199 vasp.frames;
#X obj 23 35 inlet;
#X obj 23 229 outlet;
#X text 24 9 lower half of a vasp;
#X obj 53 134 / 2;
#X obj 53 164 + 0.9;
#X text 100 163 round up;
#X obj 53 73 vasp.!radio;
#X connect 0 0 5 0;
#X connect 1 0 3 0;
#X connect 2 0 1 0;
#X connect 2 0 8 0;
#X connect 5 0 6 0;
#X connect 6 0 1 1;
#X connect 8 0 0 0;
