#N canvas 30 70 414 388 12;
#X obj 57 30 inlet;
#X obj 196 31 inlet;
#X obj 60 342 outlet;
#X obj 97 185 vasp.rfft;
#X obj 197 188 vasp.rfft;
#X obj 90 272 vasp.*;
#X obj 79 301 vasp.r!fft;
#X obj 57 68 vasp.radio;
#X obj 97 230 vasp.sync;
#X obj 197 145 vasp;
#X obj 168 98 t b;
#X connect 0 0 7 0;
#X connect 1 0 9 1;
#X connect 3 0 8 0;
#X connect 4 0 8 1;
#X connect 5 0 6 0;
#X connect 6 0 2 0;
#X connect 7 0 3 0;
#X connect 7 0 4 0;
#X connect 7 0 5 0;
#X connect 7 0 6 0;
#X connect 7 0 2 0;
#X connect 7 1 3 0;
#X connect 7 1 10 0;
#X connect 8 0 5 0;
#X connect 8 1 5 1;
#X connect 9 0 4 0;
#X connect 10 0 9 0;
