#N canvas 504 38 460 474 12;
#X obj 27 11 inlet;
#X obj 90 158 vasp.amax?;
#X obj 28 204 route 0 1;
#X obj 107 393 outlet;
#X obj 165 393 outlet;
#X obj 27 306 vasp;
#X obj 40 253 t b;
#X obj 90 121 vasp.m 2;
#X obj 105 345 vasp./;
#X obj 110 251 t b f;
#X obj 106 301 vasp;
#X obj 64 66 vasp;
#X text 105 67 catch messages ("to" not handled);
#X connect 0 0 11 0;
#X connect 1 1 2 0;
#X connect 1 1 4 0;
#X connect 2 0 6 0;
#X connect 2 1 6 0;
#X connect 2 2 9 0;
#X connect 5 0 3 0;
#X connect 6 0 5 0;
#X connect 7 0 1 0;
#X connect 7 1 5 1;
#X connect 7 1 10 1;
#X connect 8 0 3 0;
#X connect 9 0 10 0;
#X connect 9 1 8 1;
#X connect 10 0 8 0;
#X connect 11 0 7 0;
