#N canvas 0 0 454 304 12;
#X obj 47 49 inlet;
#X obj 46 223 outlet;
#X obj 144 223 outlet;
#X obj 83 179 vasp \$1 \$2 \$3 \$4 \$5 \$6 \$7 \$8 \$9;
#X obj 47 76 vasp.radio;
#X text 49 244 vasp;
#X text 149 245 radio;
#X connect 0 0 4 0;
#X connect 3 0 1 0;
#X connect 4 0 2 0;
#X connect 4 1 3 0;
