#N canvas 270 238 384 373 12;
#X obj 35 172 vasp.sum?;
#X obj 42 67 vasp.!;
#X obj 35 146 vasp.sqr;
#X obj 41 103 t a a;
#X obj 183 146 vasp.f?;
#X obj 127 251 /;
#X obj 127 275 sqrt;
#X obj 42 26 inlet;
#X obj 97 334 outlet;
#X text 102 68 make temporary buffer;
#X text 249 145 count samples;
#X text 115 175 sum squares;
#X text 159 335 RMS;
#X obj 61 206 route 0;
#X obj 62 270 0;
#X connect 0 1 13 0;
#X connect 1 0 3 0;
#X connect 2 0 0 0;
#X connect 3 0 2 0;
#X connect 3 1 4 0;
#X connect 4 0 5 1;
#X connect 5 0 6 0;
#X connect 6 0 8 0;
#X connect 7 0 1 0;
#X connect 13 0 14 0;
#X connect 13 1 5 0;
#X connect 14 0 8 0;
