#N canvas 259 112 275 442 12;
#X obj 48 24 inlet;
#X obj 102 184 route 0 1;
#X obj 45 342 outlet;
#X obj 123 344 outlet;
#X obj 45 251 vasp;
#X obj 73 217 t b;
#X obj 48 72 vasp.m 2;
#X obj 45 149 prepend set;
#X obj 131 215 t b f;
#X obj 48 109 vasp.rmax?;
#X obj 116 252 vasp.c/;
#X connect 0 0 6 0;
#X connect 1 0 5 0;
#X connect 1 1 5 0;
#X connect 1 2 8 0;
#X connect 4 0 2 0;
#X connect 5 0 4 0;
#X connect 6 0 9 0;
#X connect 6 1 7 0;
#X connect 7 0 4 0;
#X connect 7 0 10 0;
#X connect 8 0 10 0;
#X connect 8 1 10 1;
#X connect 9 1 1 0;
#X connect 9 1 3 0;
#X connect 10 0 2 0;
