#N canvas 30 70 416 452 12;
#X obj 63 359 vasp.c!fft;
#X obj 204 198 vasp.= 0;
#X obj 205 174 vasp.im;
#X obj 172 261 vasp.cfft;
#X obj 64 333 vasp.c*;
#X obj 98 195 vasp.= 0;
#X obj 99 171 vasp.im;
#X obj 64 261 vasp.cfft;
#X obj 45 31 inlet;
#X obj 212 34 inlet;
#X obj 41 413 outlet;
#X obj 192 137 vasp;
#X obj 171 107 t b;
#X obj 65 296 vasp.sync;
#X obj 65 234 vasp.sync;
#X obj 173 234 vasp.sync;
#X obj 45 66 vasp.radio;
#X connect 0 0 10 0;
#X connect 1 0 15 1;
#X connect 2 0 1 0;
#X connect 3 0 13 1;
#X connect 4 0 0 0;
#X connect 5 0 14 1;
#X connect 6 0 5 0;
#X connect 7 0 13 0;
#X connect 8 0 16 0;
#X connect 9 0 11 1;
#X connect 11 0 2 0;
#X connect 11 0 15 0;
#X connect 12 0 11 0;
#X connect 13 0 4 0;
#X connect 13 1 4 1;
#X connect 14 0 7 0;
#X connect 15 0 3 0;
#X connect 16 0 7 0;
#X connect 16 0 5 0;
#X connect 16 0 1 0;
#X connect 16 0 3 0;
#X connect 16 0 4 0;
#X connect 16 0 0 0;
#X connect 16 0 10 0;
#X connect 16 1 6 0;
#X connect 16 1 14 0;
#X connect 16 1 12 0;
