#N canvas 488 210 261 362 12;
#X obj 80 126 vasp.frames?;
#X obj 118 155 / 2;
#X obj 22 264 vasp.frames;
#X obj 22 34 inlet;
#X obj 22 300 outlet;
#X obj 22 66 vasp.m 2;
#X text 18 6 upper half of a vasp;
#X obj 65 190 + 0.9;
#X text 109 189 round up;
#X obj 22 222 vasp.offset+;
#X obj 80 99 vasp.!radio;
#X connect 0 0 1 0;
#X connect 1 0 2 1;
#X connect 1 0 7 0;
#X connect 2 0 4 0;
#X connect 3 0 5 0;
#X connect 5 0 9 0;
#X connect 5 0 10 0;
#X connect 7 0 9 1;
#X connect 9 0 2 0;
#X connect 10 0 0 0;
