#N canvas 200 200 300 120 10;
#N canvas 154 41 385 163 inside 0;
#N canvas 183 206 183 114 wavetable 0;
#X obj 30 22 table \$1 44100;
#X restore 62 51 pd wavetable;
#X text 146 50 contains the sample;
#N canvas 46 30 518 600 drawdisplay 0;
#X obj 193 407 vasp.frames 20;
#X obj 193 382 vasp.offset 0;
#X msg 83 83 bang;
#X obj 168 137 0;
#X msg 181 111 0;
#X msg 273 348 0;
#X obj 168 187 t f f f;
#X obj 195 137 + 1;
#X obj 168 214 *;
#X text 45 80 start;
#X text 287 359 (reset);
#X obj 193 432 vasp.max?;
#X obj 193 458 vasp.min?;
#X obj 333 188 t f f;
#X obj 168 243 t b b f;
#X obj 76 129 until 1;
#X obj 168 162 moses 300;
#X obj 76 108 300;
#X obj 276 480 tabwrite \$0+;
#X obj 242 526 tabwrite \$0-;
#X msg 193 298 vasp \$1;
#X obj 193 270 symbol \$1;
#X obj 83 46 r \$2-draw_display;
#X obj 333 142 r \$2-sample-length;
#X obj 333 167 / 300;
#X connect 0 0 11 0;
#X connect 1 0 0 0;
#X connect 2 0 17 0;
#X connect 3 0 7 0;
#X connect 3 0 16 0;
#X connect 4 0 3 1;
#X connect 5 0 1 1;
#X connect 6 0 8 0;
#X connect 6 1 18 1;
#X connect 6 2 19 1;
#X connect 7 0 3 1;
#X connect 8 0 14 0;
#X connect 11 0 12 0;
#X connect 11 1 18 0;
#X connect 12 1 19 0;
#X connect 13 0 8 1;
#X connect 13 1 0 1;
#X connect 14 1 21 0;
#X connect 14 2 1 1;
#X connect 15 0 3 0;
#X connect 16 0 6 0;
#X connect 16 1 5 0;
#X connect 16 1 4 0;
#X connect 17 0 15 0;
#X connect 20 0 1 0;
#X connect 21 0 20 0;
#X connect 22 0 2 0;
#X connect 23 0 24 0;
#X connect 24 0 13 0;
#X restore 62 74 pd drawdisplay;
#X text 160 73 draws the display;
#N canvas 149 160 286 126 init 0;
#X obj 33 19 loadbang;
#X obj 33 86 s \$0-;
#X msg 33 44 xticks 0 30 5 \, ylabel 315 -1 -0.5 0 0.5 \, yticks 0
0.25 2;
#X connect 0 0 2 0;
#X connect 2 0 1 0;
#X restore 61 97 pd init;
#X restore 377 85 pd inside;
#X text 374 15 this display shows the min and max of all samples that
a pixel represents;
#X text 375 46 arguments: name of array \, \$0 of the parent patch
;
#X obj 0 0 cnv 15 300 120 empty empty empty 20 12 0 14 -225271 -66577
0;
#N canvas 0 0 450 300 graph1 0;
#X array \$0- 300 float 0;
#X array \$0+ 300 float 0;
#X coords 0 1 299 -1 300 120 1;
#X restore 0 0 graph;
#X text 104 29 comment;
#X text 361 59 todo: clip 1- - +1 !!!!;
#X coords 0 0 1 1 300 120 1;
