#N canvas 200 200 300 120 10;
#N canvas 154 41 395 173 inside 0;
#N canvas 183 206 183 114 wavetable 0;
#X obj 30 22 table \$1 44100;
#X restore 62 51 pd wavetable;
#X text 146 50 contains the sample;
#N canvas 46 30 526 608 drawdisplay 0;
#X obj 193 445 vasp.frames 20;
#X obj 193 420 vasp.offset 0;
#X msg 83 83 bang;
#X obj 168 137 0;
#X obj 168 225 t f f f;
#X obj 181 114 + 1;
#X obj 168 252 *;
#X text 45 80 start;
#X text 262 215 (reset);
#X obj 193 470 vasp.max?;
#X obj 193 496 vasp.min?;
#X obj 325 275 t f f;
#X obj 168 281 t b b f;
#X obj 76 129 until 1;
#X obj 76 108 300;
#X obj 276 518 tabwrite \$0+;
#X obj 242 564 tabwrite \$0-;
#X msg 193 336 vasp \$1;
#X obj 193 308 symbol \$1;
#X obj 325 254 / 300;
#X obj 276 495 clip -1 1;
#X obj 242 539 clip -1 1;
#X obj 168 162 moses 299;
#X msg 242 217 0;
#X obj 217 196 t f b;
#X obj 325 229 r \$0-sample-length;
#X obj 83 46 r \$0-draw_display;
#X connect 0 0 9 0;
#X connect 1 0 0 0;
#X connect 2 0 14 0;
#X connect 3 0 5 0;
#X connect 3 0 22 0;
#X connect 4 0 6 0;
#X connect 4 1 15 1;
#X connect 4 2 16 1;
#X connect 5 0 3 1;
#X connect 6 0 12 0;
#X connect 9 0 10 0;
#X connect 9 1 20 0;
#X connect 10 1 21 0;
#X connect 11 0 6 1;
#X connect 11 1 0 1;
#X connect 12 1 18 0;
#X connect 12 2 1 1;
#X connect 13 0 3 0;
#X connect 14 0 13 0;
#X connect 17 0 1 0;
#X connect 18 0 17 0;
#X connect 19 0 11 0;
#X connect 20 0 15 0;
#X connect 21 0 16 0;
#X connect 22 0 4 0;
#X connect 22 1 24 0;
#X connect 23 0 1 1;
#X connect 23 0 3 1;
#X connect 24 0 4 0;
#X connect 24 1 23 0;
#X connect 25 0 19 0;
#X connect 26 0 2 0;
#X restore 62 74 pd drawdisplay;
#X text 160 73 draws the display;
#N canvas 149 160 286 126 init 0;
#X obj 33 19 loadbang;
#X obj 33 86 s \$0-;
#X msg 33 44 xticks 0 30 5 \, ylabel 315 -1 -0.5 0 0.5 \, yticks 0
0.25 2;
#X connect 0 0 2 0;
#X connect 2 0 1 0;
#X restore 61 97 pd init;
#N canvas 0 0 424 148 makelocal 0;
#X obj 83 72 s \$0-draw_display;
#X obj 83 46 r \$2-draw_display;
#X obj 216 45 r \$2-sample-length;
#X obj 216 71 s \$0-sample-length;
#X connect 1 0 0 0;
#X connect 2 0 3 0;
#X restore 61 129 pd makelocal;
#X restore 369 90 pd inside;
#X text 374 15 this display shows the min and max of all samples that
a pixel represents;
#X text 375 46 arguments: name of array \, \$0 of the parent patch
;
#X obj 0 0 cnv 15 300 120 empty empty empty 20 12 0 14 -225271 -66577
0;
#N canvas 0 0 450 300 graph1 0;
#X array \$0- 300 float 0;
#X array \$0+ 300 float 0;
#X coords 0 1 299 -1 300 120 1;
#X restore 0 0 graph;
#X obj 438 70 inlet;
#X text 480 69 individual length;
#N canvas 0 0 391 218 individual 0;
#X obj 73 125 s \$0-sample-length;
#X obj 73 58 inlet;
#X msg 201 101 resize \$1;
#X obj 201 124 s \$1;
#X connect 1 0 0 0;
#X connect 1 0 2 0;
#X connect 2 0 3 0;
#X restore 438 90 pd individual;
#X connect 5 0 7 0;
#X coords 0 0 1 1 300 120 1;
